<?xml version="1.0" standalone="no"?>
<!DOCTYPE svg PUBLIC "-//W3C//DTD SVG 1.1//EN" "http://www.w3.org/Graphics/SVG/1.1/DTD/svg11.dtd" >
<!--
2013-9-30: Created.
-->
<svg>
<metadata>
Created by iconfont
</metadata>
<defs>

<font id="iconfont" horiz-adv-x="1024" >
  <font-face
    font-family="iconfont"
    font-weight="500"
    font-stretch="normal"
    units-per-em="1024"
    ascent="896"
    descent="-128"
  />
    <missing-glyph />
    
    <glyph glyph-name="shoujichakanerweima" unicode="&#59346;" d="M768 180.16h96V352a64 64 0 0 0 64-64v-192H704v128H608v-256a64 64 0 0 0-64 64v256a64 64 0 0 0 64 64H768v-171.84zM160 800h256a64 64 0 0 0 64-64v-256a64 64 0 0 0-64-64h-256a64 64 0 0 0-64 64v256a64 64 0 0 0 64 64z m0-64v-256h256v256h-256z m0-384h256a64 64 0 0 0 64-64v-256a64 64 0 0 0-64-64h-256a64 64 0 0 0-64 64v256a64 64 0 0 0 64 64z m0-64v-256h256v256h-256z m64 384h128v-128h-128v128z m0-448h128v-128h-128v128z m448 448h128v-128h-128v128z m-64 128h256a64 64 0 0 0 64-64v-256a64 64 0 0 0-64-64h-256a64 64 0 0 0-64 64v256a64 64 0 0 0 64 64z m0-64v-256h256v256h-256z m64-704h64v-64h-64v64z m128 0h128a64 64 0 0 0-64-64h-64v64z"  horiz-adv-x="1024" />

    
    <glyph glyph-name="bendichakan" unicode="&#59345;" d="M928 411.968a254.784 254.784 0 0 1-64 109.568V710.4c0 13.312-13.632 25.6-32 25.6H192c-18.368 0-32-12.288-32-25.6v-477.056c0-13.312 13.632-25.6 32-25.6h271.552A256.64 256.64 0 0 1 544 125.952V64h128a32 32 0 1 0 0-64h-320a32 32 0 1 0 0 64h128v79.744H192c-52.288 0-96 39.36-96 89.6V710.4c0 50.304 43.712 89.6 96 89.6h640c52.288 0 96-39.296 96-89.6v-298.432z m-71.168-199.68a32.448 32.448 0 0 0 1.664-1.536l90.496-90.496a32 32 0 1 0-45.248-45.248l-90.496 90.496a32.448 32.448 0 0 0-1.536 1.664 224 224 0 1 0 45.12 45.12z m-66.176 21.12a160 160 0 1 1-226.304 226.24 160 160 0 0 1 226.304-226.304z"  horiz-adv-x="1024" />

    
    <glyph glyph-name="lan1" unicode="&#59344;" d="M448 576v-224a32 32 0 0 0-64 0V576H288a32 32 0 0 0 0 64h256a32 32 0 0 0 0-64H448zM192 800h640A96 96 0 0 0 928 704v-640a96 96 0 0 0-96-96H192A96 96 0 0 0 96 64V704A96 96 0 0 0 192 800z m0-64a32 32 0 0 1-32-32v-640a32 32 0 0 1 32-32h640a32 32 0 0 1 32 32V704a32 32 0 0 1-32 32H192zM288 192h448a32 32 0 1 0 0-64h-448a32 32 0 1 0 0 64z"  horiz-adv-x="1024" />

    
    <glyph glyph-name="yuyanpeizhi" unicode="&#59343;" d="M97.216 352a413.888 413.888 0 0 1 83.52-219.648c49.856 22.912 113.024 40 184.192 49.92A1441.536 1441.536 0 0 0 352.32 352H97.216z m0 64h255.104c0.96 54.4 4.608 106.24 10.56 154.048-74.56 10.56-140.224 28.992-190.848 53.76A413.76 413.76 0 0 1 97.152 416z m829.568 0a413.76 413.76 0 0 1-74.816 207.744c-50.56-24.704-116.288-43.136-190.848-53.696 5.952-47.808 9.6-99.648 10.56-154.048h255.104z m0-64h-255.104a1441.6 1441.6 0 0 0-12.608-169.792c71.168-9.856 134.4-26.944 184.192-49.856A413.888 413.888 0 0 1 926.784 352z m-510.464 0c1.28-58.432 6.016-113.6 13.056-163.008a1125.44 1125.44 0 0 0 165.248 0c7.04 49.408 11.712 104.576 13.056 163.008h-191.36z m0 64h191.36a1399.04 1399.04 0 0 1-10.88 147.2 1124.032 1124.032 0 0 0-169.6 0 1399.04 1399.04 0 0 1-10.88-147.2z m-190.592-333.824a415.04 415.04 0 0 1 196.032-104.32c-19.008 36.224-34.56 84.288-46.08 140.928-58.112-8.064-109.376-20.992-149.952-36.608z m-11.52 592.32c41.6-17.472 96-31.936 158.464-40.832 11.776 63.36 28.352 116.992 49.088 156.544a415.36 415.36 0 0 1-207.552-115.712z m595.584 0A415.36 415.36 0 0 1 602.24 790.208c20.736-39.552 37.312-93.184 49.088-156.544 62.464 8.896 116.928 23.36 158.464 40.832z m-11.52-592.32c-40.576 15.616-91.84 28.544-149.952 36.608-11.52-56.64-27.072-104.704-46.08-140.992a415.04 415.04 0 0 1 196.032 104.32z m-358.016 43.328C459.712 29.76 487.744-32 512-32c24.32 0 52.288 61.76 71.744 157.44a1023.36 1023.36 0 0 1-143.488 0z m-3.072 501.248a1022.336 1022.336 0 0 1 149.632 0C567.296 731.392 537.536 800 512 800c-25.6 0-55.296-68.608-74.816-173.248zM512-96a480 480 0 1 0 0 960 480 480 0 0 0 0-960z"  horiz-adv-x="1024" />

    
    <glyph glyph-name="lv" unicode="&#59342;" d="M703.872 358.976l-55.872-55.104a370.176 370.176 0 0 1-148.992 31.04c-202.752 0-379.52-162.112-379.52-362.112a37.12 37.12 0 0 0-37.376-36.8 37.12 37.12 0 0 0-37.312 36.8c0 191.744 133.504 354.56 311.168 412.8a244.224 244.224 0 0 0-105.856 200.96C250.112 722.048 361.6 832 499.072 832c137.408 0 248.832-109.888 248.832-245.504 0-83.2-41.984-156.8-106.24-201.152 21.504-7.232 42.304-16.064 62.208-26.368z m-204.8 55.68c96.192 0 174.144 76.992 174.144 171.84 0 94.912-77.952 171.84-174.208 171.84-96.192 0-174.208-76.928-174.208-171.84 0-94.848 78.016-171.84 174.208-171.84z m94.592-400.192A38.4 38.4 0 0 0 620.8 80h317.056a38.4 38.4 0 1 0 0-76.8h-224.32l30.4-30.464a38.4 38.4 0 0 0-54.272-54.272l-96 96z m374.272 204.672A38.4 38.4 0 0 0 940.8 153.6H623.744a38.4 38.4 0 0 0 0 76.8h224.32l-30.4 30.464a38.4 38.4 0 0 0 54.272 54.272l96-96z"  horiz-adv-x="1024" />

    
    <glyph glyph-name="jiazai" unicode="&#59341;" d="M928 384A416 416 0 0 1 512 800v-64A352 352 0 0 0 864 384h64z"  horiz-adv-x="1024" />

    
    <glyph glyph-name="shujulianjieguanli" unicode="&#59340;" d="M800 448v-96a32 32 0 0 0-32-32H288v-64H896a32 32 0 0 0 32-32v-256a32 32 0 0 0-32-32H128a32 32 0 0 0-32 32v256A32 32 0 0 0 128 256h96V352A32 32 0 0 0 256 384h480V448H128a32 32 0 0 0-32 32v256A32 32 0 0 0 128 768h768a32 32 0 0 0 32-32v-256a32 32 0 0 0-32-32h-96z m-640 256v-192h704V704h-704z m0-512v-192h704v192h-704zM576 640h192a32 32 0 1 0 0-64H576a32 32 0 0 0 0 64zM256 640a32 32 0 1 0 0-64 32 32 0 0 0 0 64z m320-512h192a32 32 0 1 0 0-64H576a32 32 0 1 0 0 64z m-320 0a32 32 0 1 0 0-64 32 32 0 0 0 0 64z"  horiz-adv-x="1024" />

    
    <glyph glyph-name="fuwuqishujuji" unicode="&#59339;" d="M480 384V448h-320a32 32 0 0 0-32 32v256a32 32 0 0 0 32 32h704a32 32 0 0 0 32-32v-256a32 32 0 0 0-32-32h-320v-64H896a32 32 0 0 0 32-32V192h64a32 32 0 0 0 32-32v-192a32 32 0 0 0-32-32h-192a32 32 0 0 0-32 32v192a32 32 0 0 0 32 32h64V320h-320v-128h64a32 32 0 0 0 32-32v-192a32 32 0 0 0-32-32h-192a32 32 0 0 0-32 32v192a32 32 0 0 0 32 32h64V320h-320v-128h64a32 32 0 0 0 32-32v-192a32 32 0 0 0-32-32h-192a32 32 0 0 0-32 32v192a32 32 0 0 0 32 32h64V352A32 32 0 0 0 128 384h352z m448-256H832v-128h128v128h-32z m-384 0H448v-128h128v128h-32zM192 704v-192h640V704H192z m-128-576v-128h128v128H64z m224 512a32 32 0 1 0 0-64 32 32 0 0 0 0 64z m256 0h192a32 32 0 1 0 0-64h-192a32 32 0 0 0 0 64z"  horiz-adv-x="1024" />

    
    <glyph glyph-name="shushujuji" unicode="&#59338;" d="M288 96h128v-64h-192v576H128a32 32 0 0 0-32 32V768a32 32 0 0 0 32 32h448a32 32 0 0 0 32-32v-128a32 32 0 0 0-32-32H288v-192h128v-64h-128v-256z m-128 640v-64h384v64h-384z m384-320v-64h320v64h-320z m-32 64h384a32 32 0 0 0 32-32v-128a32 32 0 0 0-32-32H512a32 32 0 0 0-32 32V448a32 32 0 0 0 32 32z m32-384v-64h320v64h-320z m-32 64h384a32 32 0 0 0 32-32v-128a32 32 0 0 0-32-32H512a32 32 0 0 0-32 32v128a32 32 0 0 0 32 32z"  horiz-adv-x="1024" />

    
    <glyph glyph-name="qitaleixingshujuji" unicode="&#59272;" d="M566.656 320a257.152 257.152 0 0 1-52.416-64H224a64 64 0 0 0-64 64V448a64 64 0 0 0 64 64h576a64 64 0 0 0 64-64v-98.24a254.4 254.4 0 0 1-64 26.176V448h-576v-128h342.656z m-52.416-320c13.952-24.064 31.68-45.696 52.48-64H224a64 64 0 0 0-64 64v128a64 64 0 0 0 64 64h264.064c-5.248-20.48-8.064-41.92-8.064-64h-256v-128h290.24zM224 768v-128h576V768h-576z m0 64h576a64 64 0 0 0 64-64v-128a64 64 0 0 0-64-64h-576a64 64 0 0 0-64 64V768a64 64 0 0 0 64 64zM320 416a32 32 0 1 0 0-64 32 32 0 0 0 0 64z m0-320a32 32 0 1 0 0-64 32 32 0 0 0 0 64z m0 640a32 32 0 1 0 0-64 32 32 0 0 0 0 64z m327.744-741.504a160 160 0 0 1 221.696 221.696l-221.696-221.696z m-45.248 45.248l221.76 221.76a160 160 0 0 1-221.696-221.696zM736-96a224 224 0 1 0 0 448 224 224 0 0 0 0-448z"  horiz-adv-x="1024" />

    
    <glyph glyph-name="yuan" unicode="&#59337;" d="M832 384A320 320 0 1 0 192 384a320 320 0 0 0 640 0"  horiz-adv-x="1024" />

    
    <glyph glyph-name="moban_tianjia" unicode="&#59336;" d="M800 512h-192a64 64 0 0 0-64 64V768h-384v-768h256v-64h-256a64 64 0 0 0-64 64V768a64 64 0 0 0 64 64h485.568a64 64 0 0 0 45.312-18.752l154.432-154.688a64 64 0 0 0 18.688-45.184V384h-64V512z m0 64v37.376L645.568 768H608v-192h192z m-256-256v-64H256a32 32 0 0 0 0 64h288z m-128-128v-64H256a32 32 0 1 0 0 64h160zM256 448h192a32 32 0 0 0 0-64H256a32 32 0 0 0 0 64z m448-275.2v128a32 32 0 1 0 64 0v-128h128a32 32 0 1 0 0-64h-128v-128a32 32 0 1 0-64 0v128H576a32 32 0 1 0 0 64h128z"  horiz-adv-x="1024" />

    
    <glyph glyph-name="H" unicode="&#59335;" d="M192 832h640a64 64 0 0 0 64-64v-541.76a64 64 0 0 0-28.48-53.248l-320-213.312a64 64 0 0 0-71.04 0l-320 213.312A64 64 0 0 0 128 226.24V768a64 64 0 0 0 64 64z m0-64v-541.76l320-213.312 320 213.312V768H192z m457.088-469.504l12.608 124.032H347.712a32 32 0 0 0-31.808 28.48l-21.312 191.872A32 32 0 0 0 326.4 678.4h370.752a32 32 0 1 0 0-64H362.176l14.144-127.872h320.832a32 32 0 0 0 31.808-35.2l-17.728-174.336a32 32 0 0 0-14.08-23.36l-149.888-99.84a32 32 0 0 0-34.56-0.512l-161.472 99.776a32 32 0 0 0-15.232 27.2v61.76a32 32 0 0 0 64 0v-43.904l128.832-79.616 120.256 80z"  horiz-adv-x="1024" />

    
    <glyph glyph-name="weixin" unicode="&#59320;" d="M839.488 30.08000000000004A316.16 316.16 0 0 0 704 0c-136.448 0-251.776 84.48-280.96 199.168A355.2 355.2 0 0 0 352 192a346.944 346.944 0 0 0-155.84 36.352l-82.368-44.608a12.8 12.8 0 0 0-18.752 13.184l14.144 95.36C61.184 342.592 32 408.128 32 480 32 640 176 768 352 768c164.672 0 301.44-112.192 318.272-257.728C681.344 511.36 692.608 512 704 512c158.208 0 288-113.6 288-256 0-66.56-28.352-126.848-74.752-172.16l11.712-78.912a12.8 12.8 0 0 0-18.752-13.184l-70.72 38.272zM607.232 497.152C597.248 612.096 487.488 704 352 704c-142.144 0-256-101.184-256-224s113.856-224 256-224c22.144 0 43.648 2.432 64.128 7.04 3.264 108.8 82.368 199.68 191.104 234.176zM704 64c124.608 0 224 87.04 224 192S828.608 448 704 448s-224-87.04-224-192 99.392-192 224-192zM246.4 531.2a38.4 38.4 0 1 0 0 76.8 38.4 38.4 0 0 0 0-76.8z m224 0a38.4 38.4 0 1 0 0 76.8 38.4 38.4 0 0 0 0-76.8z m144-256a38.4 38.4 0 1 0 0 76.8 38.4 38.4 0 0 0 0-76.8z m192 0a38.4 38.4 0 1 0 0 76.8 38.4 38.4 0 0 0 0-76.8z"  horiz-adv-x="1024" />

    
    <glyph glyph-name="dingding" unicode="&#59319;" d="M247.936 572.352l-71.424 26.304a32 32 0 0 0-16.32 13.568c-44.096 73.28-58.752 153.536-43.776 239.36A32 32 0 0 0 163.072 874.24a1774.08 1774.08 0 0 1 103.424-51.136c127.744-58.24 505.28-186.368 544.384-204.864 51.328-24.32 82.048-48 93.632-79.616 18.56-52.672-22.016-142.592-120.32-281.792h62.464a32 32 0 0 0 24.96-52.032l-234.368-292.352c-21.376-26.624-64-5.824-56.128 27.392l35.84 150.592h-53.824a32 32 0 0 0-30.528 41.664l25.984 81.856-75.84-20.096a32 32 0 0 0-14.272-0.448c-61.12 11.904-115.712 50.304-163.648 113.472a32 32 0 0 0 6.912 45.44H309.76a32 32 0 0 0-18.624 5.952C220.416 408.96 175.104 469.312 156.672 539.008a32 32 0 0 0 34.624 40l56.64-6.656z m-38.4 82.368l313.536-115.456c35.584-13.12 22.848-66.24-14.784-61.824L236.8 509.248c17.984-33.6 45.696-64.512 83.456-92.928h207.232c36.928 0 44.48-52.288 9.024-62.72l-149.44-44.032c27.712-27.328 56.64-44.48 86.784-51.84l124.672 32.96a32 32 0 0 0 38.656-40.576l-30.336-95.68h50.56a32 32 0 0 0 31.104-39.36l-12.224-51.648 103.68 129.408h-58.496a32 32 0 0 0-25.728 51.008c109.696 148.096 158.528 244.928 148.544 273.152-3.84 10.56-23.616 25.856-60.736 43.392-34.816 16.448-411.776 144.384-543.68 204.544-22.208 10.112-43.904 20.48-65.024 31.104a270.016 270.016 0 0 1 34.688-141.312z"  horiz-adv-x="1024" />

    
    <glyph glyph-name="tubiaoshezhi" unicode="&#59333;" d="M832 469.248h-64v269.44A29.312 29.312 0 0 1 738.688 768H93.312A29.312 29.312 0 0 1 64 738.688v-645.376c0-16.192 13.12-29.312 29.312-29.312h317.056l34.56-64h-355.84C40 0 0 39.936000000000035 0 89.15200000000004V742.848C0 792.128 39.936 832 89.152 832h653.696C792.128 832 832 792.064 832 742.848v-273.6zM293.312 576C272.704 576 256 590.336 256 608s16.704 32 37.312 32h309.376c20.608 0 37.312-14.336 37.312-32s-16.704-32-37.312-32H293.312zM160 576a32 32 0 1 0 0 64 32 32 0 0 0 0-64z m0-192a32 32 0 1 0 0 64 32 32 0 0 0 0-64z m0-192a32 32 0 1 0 0 64 32 32 0 0 0 0-64z m128 192a32 32 0 0 0 0 64h192a32 32 0 0 0 0-64h-192z m0-192a32 32 0 1 0 0 64h64a32 32 0 1 0 0-64h-64z m337.92 158.848l-112-199.04 112-199.168h220.16l112 199.104-112 199.104H625.92z m272.448 24.32l107.968-192a64 64 0 0 0 0-62.784l-107.968-192a64 64 0 0 0-55.808-32.64h-213.12a64 64 0 0 0-55.808 32.64l-107.968 192a64 64 0 0 0 0 62.72l107.968 192a64 64 0 0 0 55.808 32.64h213.12a64 64 0 0 0 55.808-32.64z m-162.368-280.32c20.608 0 39.616 10.88 49.92 28.48a56.32 56.32 0 0 1 0 56.896 57.728 57.728 0 0 1-49.92 28.416c-31.808 0-57.6-25.472-57.6-56.896 0-31.36 25.792-56.896 57.6-56.896z m0-56.896c-63.616 0-115.2 50.944-115.2 113.792s51.584 113.792 115.2 113.792 115.2-50.944 115.2-113.792-51.584-113.792-115.2-113.792z"  horiz-adv-x="1024" />

    
    <glyph glyph-name="fengmianshezhi" unicode="&#59334;" d="M412.352 128l36.992-64H96A96 96 0 0 0 0 160v576A96 96 0 0 0 96 832h640A96 96 0 0 0 832 736v-197.12h-64V736a32 32 0 0 1-32 32h-640a32 32 0 0 1-32-32v-509.248l221.376 184.576 138.56-87.296-30.4-56.448L290.56 332.352l-223.424-186.24A32 32 0 0 1 96 128h316.352zM204.864 626.1120000000001a96 96 0 1 0 166.272-96 96 96 0 0 0-166.272 96zM288 546.1120000000001a32 32 0 1 1 0 64 32 32 0 0 1 0-64z m337.92-131.2L513.92 215.67999999999995l112-199.04h220.16l112 199.04-112 199.104H625.92z m272.448 24.256l107.968-192a64 64 0 0 0 0-62.784l-107.968-192a64 64 0 0 0-55.808-32.64h-213.12a64 64 0 0 0-55.808 32.64l-107.968 192a64 64 0 0 0 0 62.72l107.968 192a64 64 0 0 0 55.808 32.64h213.12a64 64 0 0 0 55.808-32.64z m-162.368-280.32c20.608 0 39.616 10.88 49.92 28.48a56.32 56.32 0 0 1 0 56.896 57.728 57.728 0 0 1-49.92 28.416c-31.808 0-57.6-25.472-57.6-56.896 0-31.36 25.792-56.896 57.6-56.896z m0-56.896c-63.616 0-115.2 50.944-115.2 113.792s51.584 113.792 115.2 113.792 115.2-50.944 115.2-113.792-51.584-113.792-115.2-113.792z"  horiz-adv-x="1024" />

    
    <glyph glyph-name="suoxiao1" unicode="&#59331;" d="M415.552 528.704v177.92a32 32 0 1 0 64 0v-251.52a32.064 32.064 0 0 0-2.368-16.448 32 32 0 0 0-29.632-20.032h-256a32 32 0 1 0 0 64h179.52L108.352 745.344a32 32 0 1 0 45.248 45.312L415.552 528.64zM611.2 241.91999999999996V64a32 32 0 1 0-64 0V315.52a32.064 32.064 0 0 0 2.304 16.448 32 32 0 0 0 29.696 20.032h256a32 32 0 1 0 0-64h-179.52l262.72-262.72a32 32 0 0 0-45.248-45.248L611.2 241.91999999999996z"  horiz-adv-x="1024" />

    
    <glyph glyph-name="fangda1" unicode="&#59332;" d="M163.2 689.92V512a32 32 0 1 0-64 0V763.52a32.064 32.064 0 0 0 2.304 16.448 32 32 0 0 0 29.696 20.032h256a32 32 0 1 0 0-64H207.68L470.4 473.28a32 32 0 1 0-45.248-45.248L163.2 689.92z m700.352-609.216v177.92a32 32 0 1 0 64 0v-251.52a32.064 32.064 0 0 0-2.368-16.448 32 32 0 0 0-29.632-20.032h-256a32 32 0 1 0 0 64h179.52L556.352 297.34400000000005a32 32 0 0 0 45.248 45.312l261.952-261.952z"  horiz-adv-x="1024" />

    
    <glyph glyph-name="queshizhitianchong" unicode="&#59330;" d="M960 704h-64V768H64v-768h832v64h64v-64a64 64 0 0 0-64-64H64a64 64 0 0 0-64 64V768a64 64 0 0 0 64 64h832a64 64 0 0 0 64-64v-64zM226.496 170.49599999999998V504L128 484.992v61.056l119.232 24.192h52.992v-399.744H226.496z m149.12 0v67.968c150.336 119.808 188.352 165.888 188.352 215.424 0 48.384-32.832 61.632-74.88 61.632-25.92 0-55.296-3.456-88.128-13.248v61.056C430.336 571.9680000000001 464.896 576 501.76 576c84.672 0 135.936-35.712 135.936-113.472 0-67.968-27.648-111.168-148.608-207.36l-24.768-19.584v-4.608h185.472v-60.48H375.616z m436.608-5.76a476.16 476.16 0 0 0-91.008 7.488v62.784c30.528-6.912 57.024-9.792 87.552-9.792 51.84 0 92.736 13.248 92.736 61.632 0 47.808-37.44 61.632-103.68 61.632h-31.104v55.872h30.528c60.48 0 96.768 17.28 96.768 59.328 0 39.744-28.224 52.992-77.184 52.992-23.616 0-55.872-4.608-78.912-11.52V564.48c19.008 6.336 54.144 11.52 86.976 11.52 86.976 0 140.544-28.8 140.544-107.712 0-46.08-22.464-73.728-66.816-88.128v-3.456c52.416-9.792 77.184-43.776 77.184-94.464 0-78.336-54.72-117.504-163.584-117.504z"  horiz-adv-x="1024" />

    
    <glyph glyph-name="xinshouyindao" unicode="&#59329;" d="M898.752 654.912C843.136 687.488 780.416 704 712.384 704a451.904 451.904 0 0 1-176.256-36.992v-485.824a25.6 25.6 0 0 0-26.112-24.96 25.6 25.6 0 0 0-26.112 24.96V666.88A451.84 451.84 0 0 1 307.648 704c-68.032 0-130.752-16.512-186.368-49.088a54.272 54.272 0 0 1-27.264-46.4v-537.984c0-19.648 11.2-37.824 29.184-47.488 17.728-9.472 40.32-9.024 57.728 1.088a246.976 246.976 0 0 0 126.72 33.024c57.216 0 118.4-17.408 172.544-49.024a59.008 59.008 0 0 1 59.648 0c54.08 31.616 115.392 49.024 172.544 49.024 46.72 0 89.344-11.072 126.784-33.024 17.28-10.112 39.872-10.56 57.728-1.024a54.016 54.016 0 0 1 29.12 47.424V608.448a54.272 54.272 0 0 1-27.264 46.4v0.064z"  horiz-adv-x="1024" />

    
    <glyph glyph-name="gou" unicode="&#59328;" d="M1222.434595 874.025514L514.490811 365.152865a110.702703 110.702703 0 0 0-126.311784-2.048l-225.28 151.109189a103.119568 103.119568 0 0 1-130.629189-12.92454 95.647135 95.647135 0 0 1-7.001946-126.920649l349.322378-439.406703a110.702703 110.702703 0 0 1 165.168433-9.132973l811.727567 816.819892a85.600865 85.600865 0 0 1 0 120.665946 99.798486 99.798486 0 0 1-129.024 10.710487z"  horiz-adv-x="1383" />

    
    <glyph glyph-name="yulangongjulan_tupianchicun" unicode="&#59327;" d="M416 544h192a64 64 0 0 0 64-64v-192a64 64 0 0 0-64-64h-192a64 64 0 0 0-64 64v192a64 64 0 0 0 64 64z m0-64v-192h192v192h-192zM64 576V640h192V832h64v-192a64 64 0 0 0-64-64H64z m896 0h-192a64 64 0 0 0-64 64V832h64v-192h192v-64zM64 192h192a64 64 0 0 0 64-64v-192H256v192H64v64z m896 0v-64h-192v-192h-64v192a64 64 0 0 0 64 64h192z"  horiz-adv-x="1024" />

    
    <glyph glyph-name="baocunbinggengxin" unicode="&#59326;" d="M576 0a32 32 0 0 0-32-32h-384a64 64 0 0 0-64 64v704a64 64 0 0 0 64 64h704a64 64 0 0 0 64-64v-320a32 32 0 1 0-64 0v320h-128l-5.12-257.28a64 64 0 0 0-64-62.72H352a64 64 0 0 0-64 64v256h-128v-704h384a32 32 0 0 0 32-32zM352 736v-256h320v256h-320z m454.4-608v-153.6a38.4 38.4 0 1 0-76.8 0V128h-128a12.8 12.8 0 0 0-10.24 20.48l166.4 221.888a12.8 12.8 0 0 0 20.48 0l166.4-221.888a12.8 12.8 0 0 0-10.24-20.48h-128zM608 704a32 32 0 0 0 32-32v-128a32 32 0 0 0-64 0v128a32 32 0 0 0 32 32z"  horiz-adv-x="1024" />

    
    <glyph glyph-name="bukeliandong" unicode="&#59229;" d="M192 832h640a128 128 0 0 0 128-128v-640a128 128 0 0 0-128-128H192a128 128 0 0 0-128 128V704a128 128 0 0 0 128 128z m0-64a64 64 0 0 1-64-64v-640a64 64 0 0 1 64-64h640a64 64 0 0 1 64 64V704a64 64 0 0 1-64 64H192z"  horiz-adv-x="1024" />

    
    <glyph glyph-name="bukeliandong_kedanxiangliandong" unicode="&#59321;" d="M557.248 139.00800000000004H928a32 32 0 1 0 0-64H557.248l81.152-81.152a32 32 0 1 0-45.248-45.248l-135.808 135.744a32 32 0 0 0 0 45.248l135.808 135.744a32 32 0 1 0 45.248-45.248l-81.152-81.088zM960 320h-64V704a64 64 0 0 1-64 64H192a64 64 0 0 1-64-64v-640a64 64 0 0 1 64-64h192v-64H192a128 128 0 0 0-128 128V704a128 128 0 0 0 128 128h640a128 128 0 0 0 128-128v-384z"  horiz-adv-x="1024" />

    
    <glyph glyph-name="keliandong" unicode="&#59322;" d="M423.936 280.32000000000005l294.08 294.144a32 32 0 1 0 45.248-45.248l-314.24-314.24a32 32 0 0 0-49.152-1.024L265.6 348.03200000000004a32 32 0 0 0 45.248 45.248L423.936 280.32000000000005zM192 832h640a128 128 0 0 0 128-128v-640a128 128 0 0 0-128-128H192a128 128 0 0 0-128 128V704a128 128 0 0 0 128 128z m0-64a64 64 0 0 1-64-64v-640a64 64 0 0 1 64-64h640a64 64 0 0 1 64 64V704a64 64 0 0 1-64 64H192z"  horiz-adv-x="1024" />

    
    <glyph glyph-name="shuangxiangkeliandong" unicode="&#59325;" d="M960 320h-64V704a64 64 0 0 1-64 64H192a64 64 0 0 1-64-64v-640a64 64 0 0 1 64-64h320v-64H192a128 128 0 0 0-128 128V704a128 128 0 0 0 128 128h640a128 128 0 0 0 128-128v-384z m-536.256-39.744l294.208 294.208a32 32 0 1 0 45.248-45.248L447.232 213.12a32 32 0 0 0-46.08-0.832L265.344 348.096a32 32 0 1 0 45.312 45.248L423.68 280.32000000000005z m290.304-51.328H992a32 32 0 1 0 0-64H636.8a31.872 31.872 0 0 0-22.656 54.592l90.56 90.56a32 32 0 0 0 45.248-45.248l-35.84-35.904zM914.752 0H636.8a32 32 0 1 0 0 64h355.2a31.872 31.872 0 0 0 22.656-54.656l-90.56-90.496a32 32 0 0 0-45.248 45.248l35.84 35.904z"  horiz-adv-x="1024" />

    
    <glyph glyph-name="zhibiaomingchengziduan" unicode="&#59324;" d="M429.056 608v-576h-76.8v576H134.4v64h512v-64H429.056z m460.416 72.32c3.392-5.12 4.16-10.752 2.176-16.96-1.856-6.144-5.12-10.112-9.856-11.776l-50.56-13.44 33.28-42.944a14.528 14.528 0 0 0 1.92-8c0-3.2-0.512-6.528-1.664-9.856a34.88 34.88 0 0 0-4.416-9.344 17.28 17.28 0 0 0-7.296-6.08 24.064 24.064 0 0 0-18.304 3.2 25.6 25.6 0 0 0-10.56 11.52V576l-25.6 42.88-34.56-49.216c-0.896-2.176-2.752-3.776-5.76-4.864a24 24 0 0 0-7.04-1.6 41.536 41.536 0 0 0-10.56 1.28 11.328 11.328 0 0 0-7.296 6.4v-0.64a27.328 27.328 0 0 0 0 30.08l29.44 37.12h-0.64c-0.512 0-0.896 0.256-1.408 0.704h-2.56a172.544 172.544 0 0 0-16.64 4.416 1833.92 1833.92 0 0 1-21.12 6.464c-4.608 1.664-7.744 6.336-9.152 14.016a29.44 29.44 0 0 0 1.472 19.2 16.256 16.256 0 0 0 12.224 6.4 22.784 22.784 0 0 0 14.72-3.84h-0.64l19.84-7.04c6.784-2.944 13.44-5.12 19.84-6.4v10.88a15.872 15.872 0 0 1-0.256 2.88 12.032 12.032 0 0 0-0.32 2.88V716.8c0 6.016 1.92 10.688 5.952 14.08a22.528 22.528 0 0 0 15.104 5.12 23.04 23.04 0 0 0 13.44-5.12 16.384 16.384 0 0 0 7.04-14.08l-3.2-45.44 39.68 15.424a32.896 32.896 0 0 0 17.6 1.856 21.44 21.44 0 0 0 15.68-8.32z"  horiz-adv-x="1024" />

    
    <glyph glyph-name="youhuazhanshicengjibeifen-copy" unicode="&#59323;" d="M480 0V768h-384v-128h-64V800A32 32 0 0 0 64 832h896a32 32 0 0 0 32-32v-159.872h-64V768h-384v-768h384v128.064h64V-32a32 32 0 0 0-32-32H64a32 32 0 0 0-32 32V128h64v-128h384zM274.752 416L193.6 497.152a32 32 0 1 0 45.248 45.248l135.808-135.744a32 32 0 0 0 0-45.312l-135.808-135.68a32 32 0 1 0-45.248 45.184L274.752 352H96a32 32 0 0 0 0 64h178.752z m474.816 0.128H928a32 32 0 1 0 0-64h-179.008l81.408-81.408a32 32 0 1 0-45.248-45.312l-135.808 135.808A31.872 31.872 0 0 0 640 384.128a32 32 0 0 0 12.096 25.024l133.056 133.12a32 32 0 1 0 45.248-45.312l-80.832-80.832z"  horiz-adv-x="1170" />

    
    <glyph glyph-name="qiehuan" unicode="&#59228;" d="M512 576H320a192 192 0 0 1-1.792-384l-42.496-59.392C155.136 155.32799999999997 64 259.264 64 384c0 141.44 116.992 256 261.312 256h314.304L512 461.376V576z m-102.72-384l81.92 114.688V192H704a192 192 0 0 1 0 384h-20.096l44.608 62.336C858.88 623.808 960 515.456 960 384c0-141.44-116.992-256-261.312-256H363.52l45.76 64z"  horiz-adv-x="1024" />

    
    <glyph glyph-name="shouqi2" unicode="&#59226;" d="M186.181818 337.45454500000005h651.636364V430.545455H186.181818z"  horiz-adv-x="1024" />

    
    <glyph glyph-name="zhankai2" unicode="&#59227;" d="M465.454545 430.545455V709.818182h93.09091v-279.272727h279.272727v-93.09091H558.545455v-279.272727H465.454545V337.45454500000005H186.181818V430.545455h279.272727z"  horiz-adv-x="1024" />

    
    <glyph glyph-name="huifuquanxianjichengfuzhi" unicode="&#59145;" d="M295.232 619.392L374.4 540.288a19.2 19.2 0 0 0-13.568-32.768H170.304a19.2 19.2 0 0 0-19.2 19.2V717.184a19.2 19.2 0 0 0 32.832 13.568l66.048-66.048a384 384 0 1 0-29.504-530.56 32 32 0 1 0 48.832 41.28 320 320 0 1 1 25.92 444.032z"  horiz-adv-x="1024" />

    
    <glyph glyph-name="danyonghuxianzhi" unicode="&#59224;" d="M630.784 374.03306699999996c-110.3872-51.882667-155.101867-173.124267-155.101867-314.299734v-102.4H34.133333a443.938133 443.938133 0 0 0 291.566934 416.9728 273.066667 273.066667 0 1 0 304.264533 0l0.750933-0.273066zM648.533333 230.39999999999998v34.133333a136.533333 136.533333 0 1 0 273.066667 0v-34.133333h34.133333a34.133333 34.133333 0 0 0 34.133334-34.133333V76.79999999999995a187.733333 187.733333 0 0 0-187.733334-187.733333h-34.133333A187.733333 187.733333 0 0 0 580.266667 76.79999999999995v119.466667a34.133333 34.133333 0 0 0 34.133333 34.133333H648.533333z m68.266667 0h136.533333v34.133333a68.266667 68.266667 0 0 1-136.533333 0v-34.133333z m68.266667-98.986667a34.133333 34.133333 0 0 1-34.133334-34.133333v-68.266667a34.133333 34.133333 0 1 1 68.266667 0v68.266667a34.133333 34.133333 0 0 1-34.133333 34.133333z"  horiz-adv-x="1024" />

    
    <glyph glyph-name="jiejuecuoshi" unicode="&#59142;" d="M656.128 319.616l147.712-147.712a96 96 0 0 0-135.744-135.744L520.32 183.87199999999996l-133.12-133.12A128 128 0 1 0 206.08 231.67999999999995L384.64 410.176l-104.96 104.96a96 96 0 0 0-109.312 18.816L102.4 601.7919999999999l135.744 135.808 67.904-67.84a96 96 0 0 0 18.752-109.312l105.024-105.024 47.872 47.872 1.28 1.216a223.744 223.744 0 0 0 62.08 197.888 223.744 223.744 0 0 0 197.888 62.08l-17.472-17.472 17.472 17.472a410.24 410.24 0 0 0 68.992-21.504c-19.2-16.128-34.176-29.696-45.056-40.576-7.168-7.168-19.264-20.736-36.288-40.768a64 64 0 1 1 90.496-90.496c17.92 17.152 31.488 30.336 40.768 39.616 8.832 8.832 22.4 22.784 40.64 41.792 11.328-23.68 18.496-46.72 21.44-69.056l-17.472-17.472 17.472 17.472a223.744 223.744 0 0 0-62.08-197.888 223.744 223.744 0 0 0-197.888-62.08 130.688 130.688 0 0 0-1.28-1.28l-2.56-2.56zM352 287.10400000000004l-100.672-100.608A64 64 0 1 1 341.952 96l271.488 271.488 0.64 0.64 4.288 4.416 7.552 7.552c1.28 1.28 2.432 2.56 3.52 3.84l8.32 8.512 33.408-5.952a159.744 159.744 0 0 1 141.44 44.352c25.536 25.6 40.576 57.6 45.248 90.752a128 128 0 0 0-180.8 180.864 159.296 159.296 0 0 1-90.752-45.312 159.744 159.744 0 0 1-44.352-141.44l5.952-33.408-7.04-6.848a64.64 64.64 0 0 1-5.44-4.864L354.368 289.53599999999994a65.024 65.024 0 0 1-2.304-2.432z m258.816-12.736l-45.312-45.248 147.776-147.712a32 32 0 1 1 45.248 45.248L610.88 274.36800000000005z m-417.92 327.424l22.592-22.592a32 32 0 1 1 45.248 45.248l-22.656 22.656-45.248-45.312z"  horiz-adv-x="1024" />

    
    <glyph glyph-name="yindao" unicode="&#59143;" d="M440 336V480H190.928a38.688 38.688 0 0 0-38.928 38.4V633.6c0 21.216 17.424 38.4 38.928 38.4H440V720a48 48 0 0 0 48 48h48a48 48 0 0 0 48-48v-48H800c9.12 0 17.952-3.168 24.96-8.88l88.032-72.384a19.008 19.008 0 0 0 0-29.472l-88.08-72.384A39.264 39.264 0 0 0 800 480h-216v-144h249.072c21.504 0 38.928-17.184 38.928-38.4v-115.2c0-21.216-17.424-38.4-38.928-38.4H584v-96a48 48 0 0 0-48-48h-48a48 48 0 0 0-48 48v96H224a39.264 39.264 0 0 0-24.96 8.88l-88.032 72.384a19.008 19.008 0 0 0 0 29.472l88.08 72.384A39.264 39.264 0 0 0 224 336h216z"  horiz-adv-x="1024" />

    
    <glyph glyph-name="yichangxiangqing" unicode="&#59144;" d="M255.744 0V320a256 256 0 1 0 512 0v-320h96a32 32 0 1 0 0-64h-704a32 32 0 1 0 0 64h96z m64 0h384V320a192 192 0 0 1-384 0v-320z m177.28 256h84.288c8.576 0 16.384-3.392 22.144-8.896a32 32 0 0 0 5.76-39.296l-64-110.848a32 32 0 0 0-55.424 32L526.208 192H445.888a32 32 0 0 0-32.256 47.68l64 110.848a32 32 0 0 0 55.424-32L496.96 256z m14.72 576a32 32 0 0 0 32-32v-128a32 32 0 0 0-64 0v128a32 32 0 0 0 32 32z m-240-51.264a32 32 0 0 0 43.712-11.712l64-110.848a32 32 0 1 0-55.424-32l-64 110.848a32 32 0 0 0 11.712 43.712zM95.808 611.2a32 32 0 0 0 43.712 11.712l110.848-64a32 32 0 0 0-32-55.424l-110.848 64a32 32 0 0 0-11.712 43.712z m831.872 0a32 32 0 0 0-11.712-43.712l-110.848-64a32 32 0 0 0-32 55.424l110.848 64a32 32 0 0 0 43.712-11.712z m-175.936 169.536a32 32 0 0 0 11.712-43.712l-64-110.848a32 32 0 0 0-55.424 32l64 110.848a32 32 0 0 0 43.712 11.712z"  horiz-adv-x="1024" />

    
    <glyph glyph-name="yichang" unicode="&#59062;" d="M512 833.992125a440.99228232 440.99228232 0 0 1-175.21568349-35.15563477 451.56709776 451.56709776 0 0 1-143.32249161-96.29831425A451.56709776 451.56709776 0 0 1 97.16350977 559.21568349 440.99228232 440.99228232 0 0 1 62.007875 384a440.99228232 440.99228232 0 0 1 35.15563477-175.21568349 451.56709776 451.56709776 0 0 1 96.29831513-143.32249248 451.56709776 451.56709776 0 0 1 143.32249161-96.29831426A440.99228232 440.99228232 0 0 1 512-65.99212499999999a440.99228232 440.99228232 0 0 1 175.21568349 35.15563477 451.56709776 451.56709776 0 0 1 143.32249248 96.29831425 451.56709776 451.56709776 0 0 1 96.29831426 143.32249249A440.99228232 440.99228232 0 0 1 961.992125 384a440.99228232 440.99228232 0 0 1-35.15563477 175.21568349 451.56709776 451.56709776 0 0 1-96.29831425 143.32249248A451.56709776 451.56709776 0 0 1 687.21568349 798.83649023 440.99228232 440.99228232 0 0 1 512 833.992125z m0-705.25015839a50.06162373 50.06162373 0 0 0-36.78685576 15.13098544 50.06162373 50.06162373 0 0 0-15.18723457 36.78685664 50.06162373 50.06162373 0 0 0 15.18723457 36.73060664 50.06162373 50.06162373 0 0 0 36.78685576 15.18723457 50.06162373 50.06162373 0 0 0 36.78685664-15.18723457c10.12482246-10.06857422 15.18723457-22.33085888 15.18723369-36.73060664a50.06162373 50.06162373 0 0 0-15.18723369-36.78685664 50.06162373 50.06162373 0 0 0-36.78685664-15.18723369z m51.91784121 224.99606337a50.06162373 50.06162373 0 0 0-15.18723369-36.78685664 50.06162373 50.06162373 0 0 0-36.73060752-15.18723457 50.06162373 50.06162373 0 0 0-36.78685576 15.18723457 50.06162373 50.06162373 0 0 0-15.18723457 36.78685664V596.0025401299999a50.06162373 50.06162373 0 0 0 15.18723457 36.78685576 50.06162373 50.06162373 0 0 0 36.78685576 15.18723458 50.06162373 50.06162373 0 0 0 36.78685664-15.18723458c10.12482246-10.12482246 15.18723457-22.33085888 15.18723369-36.78685576v-242.26451015z"  horiz-adv-x="1024" />

    
    <glyph glyph-name="chenggong1" unicode="&#59102;" d="M336.78431651 798.83649023a451.56709776 451.56709776 0 0 1-143.32249161-96.29831426A451.56709776 451.56709776 0 0 1 97.16350977 559.21568349 440.99228232 440.99228232 0 0 1 62.007875 384a440.99228232 440.99228232 0 0 1 35.15563477-175.21568349 451.56709776 451.56709776 0 0 1 96.29831513-143.32249248 451.56709776 451.56709776 0 0 1 143.32249161-96.29831426A440.99228232 440.99228232 0 0 1 512-65.99212499999999a440.99228232 440.99228232 0 0 1 175.21568349 35.15563477 451.56709776 451.56709776 0 0 1 143.32249248 96.29831425 451.56709776 451.56709776 0 0 1 96.29831426 143.32249249A440.99228232 440.99228232 0 0 1 961.992125 384a440.99228232 440.99228232 0 0 1-35.15563477 175.21568349 451.56709776 451.56709776 0 0 1-96.29831425 143.32249248A451.56709776 451.56709776 0 0 1 687.21568349 798.83649023 440.99228232 440.99228232 0 0 1 512 833.992125a440.99228232 440.99228232 0 0 1-175.21568349-35.15563477z m119.64165644-633.70140996A21.59962208 21.59962208 0 0 0 441.12624013 159.0039375a21.59962208 21.59962208 0 0 0-15.24348281 6.1873919l-6.52488574 6.13114277L237.27980761 343.5007084A19.12466513 19.12466513 0 0 0 230.75492187 357.90045703a19.12466513 19.12466513 0 0 0 6.52488575 14.39974776l44.71796777 42.01801435a21.59962208 21.59962208 0 0 0 15.24348281 6.1873919c5.84989805 0 10.91230928-2.08121396 15.2434837-6.1873919L441.12624013 292.31410488999995l270.38901885 254.35804833a21.59962208 21.59962208 0 0 0 15.1872337 6.13114277c5.84989805 0 10.9685584-2.02496484 15.29973281-6.18739188l44.71796689-42.01801437a19.12466513 19.12466513 0 0 0 6.52488574-14.34349951 19.12466513 19.12466513 0 0 0-6.52488574-14.34349862l-330.29421943-310.71956221z"  horiz-adv-x="1024" />

    
    <glyph glyph-name="yichangbaocuo" unicode="&#59141;" d="M512-65.99212499999999a440.99228232 440.99228232 0 0 0-175.21568349 35.15563477 451.56709776 451.56709776 0 0 0-143.32249161 96.29831425 451.56709776 451.56709776 0 0 0-96.29831513 143.32249249A440.99228232 440.99228232 0 0 0 62.007875 384a440.99228232 440.99228232 0 0 0 35.15563477 175.21568349 451.56709776 451.56709776 0 0 0 96.29831513 143.32249248A451.56709776 451.56709776 0 0 0 336.78431651 798.83649023 440.99228232 440.99228232 0 0 0 512 833.992125a440.99228232 440.99228232 0 0 0 175.21568349-35.15563477 451.56709776 451.56709776 0 0 0 143.32249248-96.29831425 451.56709776 451.56709776 0 0 0 96.29831426-143.32249249A440.99228232 440.99228232 0 0 0 961.992125 384a440.99228232 440.99228232 0 0 0-35.15563477-175.21568349 451.56709776 451.56709776 0 0 0-96.29831425-143.32249248 451.56709776 451.56709776 0 0 0-143.32249249-96.29831426A440.99228232 440.99228232 0 0 0 512-65.99212499999999z m206.60263417 580.88358457a21.37462559 21.37462559 0 0 1 6.46863751 15.6934749 21.37462559 21.37462559 0 0 1-6.4686375 15.69347579l-46.51793525 45.39295546a20.75588701 20.75588701 0 0 1-30.2619709 0L512 461.90488682 381.10854043 591.67136572a20.75588701 20.75588701 0 0 1-30.26197002 0l-46.51793614-45.39295546a23.68083516 23.68083516 0 0 1-5.39990507-15.7497249c0-6.07489365 1.79996836-11.30605224 5.39990507-15.63722579l130.89145958-129.82272803-130.89145957-129.76647891a23.68083516 23.68083516 0 0 1-5.39990508-15.7497249c0-6.07489365 1.79996836-11.30605224 5.39990507-15.63722666l46.51793614-45.44920459a20.75588701 20.75588701 0 0 1 30.26197001 0L512 308.28882451000004l129.82272803-129.82272803a20.75588701 20.75588701 0 0 1 30.2619709 0l46.51793525 45.44920459a21.37462559 21.37462559 0 0 1 6.4686375 15.69347578 21.37462559 21.37462559 0 0 1-6.4686375 15.69347578L587.71117549 385.06873154l130.89145869 129.82272803z"  horiz-adv-x="1024" />

    
    <glyph glyph-name="tianjiayewubao1" unicode="&#59318;" d="M576 27.456000000000017v-59.456h320H128c-35.328 0-64 26.624-64 59.456V740.48c0 32.832 28.672 59.456 64 59.456h320l128-118.848h320c35.328 0 64-26.624 64-59.456v-432V352h-64V448H128v-420.544h448zM896 512V621.696H549.504l-128 118.848H128V512h768zM224 384H448a32 32 0 0 0 0-64H224a32 32 0 0 0 0 64z m0-128H320a32 32 0 1 0 0-64H224a32 32 0 1 0 0 64z m512-64V320a32 32 0 1 0 64 0v-128h128a32 32 0 1 0 0-64h-128v-128a32 32 0 1 0-64 0v128h-128a32 32 0 1 0 0 64h128z"  horiz-adv-x="1024" />

    
    <glyph glyph-name="kuaijieshezhi" unicode="&#59058;" d="M597.76-60.60799999999995a437.12 437.12 0 0 0-8.256-2.24 36.992 36.992 0 0 0-42.56 20.224A74.112 74.112 0 0 1 480 0a74.112 74.112 0 0 1-66.944-42.688 36.928 36.928 0 0 0-42.56-20.16 443.968 443.968 0 0 0-211.968 125.888 39.232 39.232 0 0 0-4.352 48c15.872 24.448 16.768 55.488 2.496 80.896a74.24 74.24 0 0 1-69.44 38.272 37.312 37.312 0 0 0-38.272 27.84A471.872 471.872 0 0 0 32 384c0 42.56 5.632 84.928 16.96 125.888a36.864 36.864 0 0 0 38.272 27.84c28.352-1.984 55.296 12.8 69.44 38.208a78.272 78.272 0 0 1-2.496 80.96 39.232 39.232 0 0 0 4.352 48 444.48 444.48 0 0 0 211.968 125.952 36.992 36.992 0 0 0 42.56-20.224c12.544-26.24 38.528-42.816 66.944-42.688 28.416-0.128 54.4 16.448 66.944 42.688a36.928 36.928 0 0 0 42.56 20.224 444.608 444.608 0 0 0 211.968-125.952c12.16-12.992 14.016-32.896 4.288-48-15.808-24.256-16.768-55.68-2.496-80.896h-70.016a162.176 162.176 0 0 0 3.968 103.872 381.952 381.952 0 0 1-136.576 81.28 151.808 151.808 0 0 0-241.28 0 382.272 382.272 0 0 1-136.576-81.28 161.92 161.92 0 0 0-10.176-137.152 153.344 153.344 0 0 0-110.528-77.632 412.16 412.16 0 0 1 0-162.176c46.464-7.104 87.232-35.712 110.528-77.696 23.616-41.728 27.328-92.16 10.176-137.088a382.464 382.464 0 0 1 136.512-81.216 151.872 151.872 0 0 0 241.344 0 377.6 377.6 0 0 1 13.312 4.736l-16.256-72.32z m26.56 571.264l-30.464-68.096a128 128 0 1 1-81.6-182.464L481.792 192H480a192 192 0 1 0 144.32 318.656zM734.592 422.4l-87.744-204.8h125.696a25.6 25.6 0 0 0 25.088-30.976l-31.488-146.752 173.44 222.72h-112.192a25.6 25.6 0 0 0-20.992 40.256L889.792 422.4h-155.2z m-126.592-256a25.6 25.6 0 0 0-23.552 35.712l109.76 256a25.6 25.6 0 0 0 23.488 15.488h221.12a25.6 25.6 0 0 0 20.992-40.256l-83.328-119.552H992a25.6 25.6 0 0 0 20.224-41.344l-274.304-352.192c-16.704-21.44-50.944-5.504-45.248 21.12l48.256 225.024H608z"  horiz-adv-x="1024" />

    
    <glyph glyph-name="tezhengtiaoyong" unicode="&#59317;" d="M429.568 7.04l-0.768-1.344-296.32 171.008a64 64 0 0 0-32 55.424V574.272a64 64 0 0 0 32 55.424L428.8 800.64a64 64 0 0 0 64 0L627.136 723.2A64 64 0 0 0 640 717.44l296.32-171.008a64 64 0 0 0 32-55.424v-342.144a64 64 0 0 0-32-55.424L640-77.44a64 64 0 0 0-64 0l-146.432 84.48z m-181.824 177.088V491.072a64 64 0 0 0 32 55.424l262.72 151.68L460.8 745.28 164.48 574.272v-342.144l83.2-48z m510.08 391.488l-0.768-1.344L606.464 661.12 311.68 491.072v-342.144L608-22.08l296.32 171.008V491.072l-146.496 84.48zM608 224a96 96 0 1 0 0 192 96 96 0 0 0 0-192z"  horiz-adv-x="1024" />

    
    <glyph glyph-name="tishi_chenggong" unicode="&#59316;" d="M780.48 599.530667a38.464 38.464 0 0 0 49.738667-4.117334 32.992 32.992 0 0 0 0-46.506666l-312.853334-314.826667a42.666667 42.666667 0 0 0-63.658666 3.52L319.072 406.954667a36.864 36.864 0 0 0 2.709333 48.917333 39.744 39.744 0 0 0 50.336 4.992l86.826667-58.250667a42.666667 42.666667 0 0 1 48.672 0.789334l272.874667 196.128zM669.696 634.666667a26.666667 26.666667 0 1 0-29.973333-44.106667A254.656 254.656 0 0 1 496 634.666667c-141.386667 0-256-114.613333-256-256s114.613333-256 256-256 256 114.613333 256 256a26.666667 26.666667 0 1 0 53.333333 0c0-170.837333-138.496-309.333333-309.333333-309.333334s-309.333333 138.496-309.333333 309.333334 138.496 309.333333 309.333333 309.333333c62.784 0 122.837333-18.773333 173.685333-53.333333z"  horiz-adv-x="1024" />

    
    <glyph glyph-name="normal104" unicode="&#59055;" d="M315.648 257.15200000000004H928a32 32 0 1 0 0-64H316.16A128.512 128.512 0 0 0 192 96c-70.4 0-128 57.6-128 128s57.6 128 128 128c58.944 0 108.928-40.384 123.648-94.848z m0 448H928a32 32 0 1 0 0-64H316.224A128.512 128.512 0 0 0 192 544c-70.4 0-128 57.6-128 128s57.6 128 128 128c58.944 0 108.928-40.32 123.584-94.848zM544 480h384a32 32 0 1 0 0-64h-384a32 32 0 0 0 0 64z m0-448h384a32 32 0 1 0 0-64h-384a32 32 0 1 0 0 64zM192 736c-38.4 0-64-25.6-64-64s25.6-64 64-64 64 25.6 64 64-25.6 64-64 64z m0-448c-38.4 0-64-25.6-64-64s25.6-64 64-64 64 25.6 64 64-25.6 64-64 64z"  horiz-adv-x="1024" />

    
    <glyph glyph-name="fenxiangguanbi" unicode="&#59053;" d="M896 256h-64v27.328a64 64 0 0 1-128 0V256h-64v27.328a128 128 0 1 0 256 0V256z m-288 0h320a32 32 0 0 0 32-32v-256a32 32 0 0 0-32-32h-320a32 32 0 0 0-32 32v256a32 32 0 0 0 32 32z m32-64v-192h256v192h-256zM390.848 507.264l221.696 128 32-55.424-221.696-128-32 55.424zM512 264.576v-73.92L384 264.576 416 320l96-55.424zM768 512a128 128 0 1 1 0 256 128 128 0 0 1 0-256z m0-64a192 192 0 1 0 0 384 192 192 0 0 0 0-384z m-512-192a128 128 0 1 1 0 256 128 128 0 0 1 0-256z m0-64a192 192 0 1 0 0 384 192 192 0 0 0 0-384z"  horiz-adv-x="1024" />

    
    <glyph glyph-name="qiehuansuanfa" unicode="&#59052;" d="M720.32 218.49599999999998l-132.992-131.776a32 32 0 0 1 45.056-45.44l188.16 186.496a32 32 0 0 1-22.464 54.72H224a32 32 0 1 1 0-64h496.32zM434.88 675.84a32 32 0 0 1-45.12 45.44L201.6 534.72A32 32 0 0 1 224 480h574.08a32 32 0 1 1 0 64H301.824l132.992 131.776z"  horiz-adv-x="1024" />

    
    <glyph glyph-name="guanlianguize" unicode="&#59304;" d="M704 576h-64V704H192v-384h448V384h64v-64a64 64 0 0 0-64-64H192a64 64 0 0 0-64 64V704a64 64 0 0 0 64 64h448a64 64 0 0 0 64-64v-128z m-384-384h64v-128h448V448H384v-64H320V448a64 64 0 0 0 64 64h448a64 64 0 0 0 64-64v-384a64 64 0 0 0-64-64H384a64 64 0 0 0-64 64v128z"  horiz-adv-x="1024" />

    
    <glyph glyph-name="guiyihuabiaozhunhua" unicode="&#59305;" d="M704 64h192V704h-192V768h192a64 64 0 0 0 64-64v-640a64 64 0 0 0-64-64h-192v64zM320 704H128v-640h192v-64H128a64 64 0 0 0-64 64V704a64 64 0 0 0 64 64h192v-64z m0-192a32 32 0 0 0 32-32v-320a32 32 0 1 0-64 0v320A32 32 0 0 0 320 512z m192 128a32 32 0 0 0 32-32v-448a32 32 0 1 0-64 0v448A32 32 0 0 0 512 640z m192-192a32 32 0 0 0 32-32v-256a32 32 0 1 0-64 0v256A32 32 0 0 0 704 448z"  horiz-adv-x="1024" />

    
    <glyph glyph-name="fenlei" unicode="&#59306;" d="M546.304 307.84v-174.912L704 41.92l157.696 91.008V315.072l-152.128 87.808a64 64 0 0 0-7.872-5.376L546.304 307.84z m187.392 154.944l2.304-1.28 157.696-91.008a64 64 0 0 0 32-55.424v-182.144a64 64 0 0 0-32-55.424L736-13.44a64 64 0 0 0-64 0L514.304 77.44A64.192 64.192 0 0 0 512 78.912a64.192 64.192 0 0 0-2.304-1.408L352-13.44a64 64 0 0 0-64 0L130.304 77.44a64 64 0 0 0-32 55.424V315.072a64 64 0 0 0 32 55.424L288 461.44l2.304 1.28V635.072a64 64 0 0 0 32 55.424L480 781.44a64 64 0 0 0 64 0l157.696-91.008a64 64 0 0 0 32-55.424V462.72z m-64-2.56V635.072L512 726.08 354.304 635.072V460.16l155.392-89.728 2.304-1.408 2.304 1.408 155.392 89.728z m-192-152.448L322.304 397.504a64 64 0 0 0-7.872 5.376L162.304 315.072v-182.144L320 41.92l157.696 91.008V307.84z"  horiz-adv-x="1024" />

    
    <glyph glyph-name="julei" unicode="&#59307;" d="M141.184-29.184a32 32 0 0 0-42.368 42.368A64 64 0 0 0 96 32v704a64 64 0 0 0 64 64h704a64 64 0 0 0 18.816-2.816 32 32 0 0 0 42.368-42.368 64 64 0 0 0 2.816-18.816v-704a64 64 0 0 0-64-64h-704a64 64 0 0 0-18.816 2.816z m18.816 106.432L818.752 736H160v-658.752z m704 613.504L205.248 32H864V690.752zM544 576a64 64 0 1 0 0 128 64 64 0 0 0 0-128z m192-256a64 64 0 1 0 0 128 64 64 0 0 0 0-128z m-448 224a64 64 0 1 0 0 128 64 64 0 0 0 0-128z m-32-256a64 64 0 1 0 0 128 64 64 0 0 0 0-128z m256-192a64 64 0 1 0 0 128 64 64 0 0 0 0-128z"  horiz-adv-x="1024" />

    
    <glyph glyph-name="xiangguanxingfenxi" unicode="&#59308;" d="M733.44 305.536A160 160 0 1 0 643.2 128h-262.4a160 160 0 1 0-90.24 177.536l130.56 234.816a160 160 0 1 0 181.888 0l130.368-234.88z m-52.096-38.208L543.744 515.2a160.768 160.768 0 0 0-63.424 0L342.656 267.328c18.88-20.8 32.32-46.72 38.144-75.328h262.4c5.76 28.672 19.264 54.528 38.144 75.328zM512 576a96 96 0 1 1 0 192 96 96 0 0 1 0-192z m-288-512a96 96 0 1 1 0 192 96 96 0 0 1 0-192z m576 0a96 96 0 1 1 0 192 96 96 0 0 1 0-192z"  horiz-adv-x="1024" />

    
    <glyph glyph-name="huigui" unicode="&#59309;" d="M192 96.768c147.584 19.776 244.8 82.24 295.616 187.776 12.8 26.56 22.208 55.68 30.464 91.84 3.904 17.024 6.016 27.712 12.8 63.168 36.8 194.432 94.4 269.888 296.96 296.192a32 32 0 0 0 8.32-63.488c-170.24-22.08-210.176-74.496-242.432-244.608-6.912-36.288-9.088-47.36-13.248-65.6-9.28-40.448-20.096-73.856-35.2-105.28C501.312 165.44 428.352 101.12 327.936 64H864a32 32 0 1 0 0-64H192a64 64 0 0 0-64 64V736a32 32 0 0 0 64 0v-639.232zM832 448a64 64 0 1 0 0 128 64 64 0 0 0 0-128zM448 640a64 64 0 1 0 0 128 64 64 0 0 0 0-128z m256-448a64 64 0 1 0 0 128 64 64 0 0 0 0-128zM320 384a64 64 0 1 0 0 128 64 64 0 0 0 0-128z"  horiz-adv-x="1024" />

    
    <glyph glyph-name="shijianxulie" unicode="&#59310;" d="M490.944 512a288 288 0 1 0 0-448H160a32 32 0 1 0 0 64h272.512a286.336 286.336 0 0 0-46.72 128H160a32 32 0 0 0 0 64h225.728c5.248 46.976 21.76 90.624 46.72 128H160a32 32 0 0 0 0 64h330.944zM160 704h704a32 32 0 1 0 0-64h-704a32 32 0 0 0 0 64z m512-640a224 224 0 1 1 0 448 224 224 0 0 1 0-448z m32 256h96a32 32 0 1 0 0-64H704a64 64 0 0 0-64 64V416a32 32 0 1 0 64 0V320z"  horiz-adv-x="1024" />

    
    <glyph glyph-name="liqundian" unicode="&#59311;" d="M192 64h160a32 32 0 1 0 0-64H192a64 64 0 0 0-64 64V224a32 32 0 0 0 64 0V64zM832 64H672a32 32 0 1 1 0-64H832a64 64 0 0 1 64 64V224a32 32 0 0 1-64 0V64zM192 704h160a32 32 0 0 1 0 64H192a64 64 0 0 1-64-64v-160a32 32 0 1 1 64 0V704zM832 704H672a32 32 0 1 0 0 64H832a64 64 0 0 0 64-64v-160a32 32 0 0 0-64 0V704zM192 64h160a32 32 0 1 0 0-64H192a64 64 0 0 0-64 64v160a32 32 0 1 0 64 0V64z m640 0v160a32 32 0 1 0 64 0V64a64 64 0 0 0-64-64h-160a32 32 0 1 0 0 64H832zM192 704v-160a32 32 0 0 0-64 0V704a64 64 0 0 0 64 64h160a32 32 0 0 0 0-64H192z m640 0h-160a32 32 0 1 0 0 64H832a64 64 0 0 0 64-64v-160a32 32 0 1 0-64 0V704z m-320-448a128 128 0 1 0 0 256 128 128 0 0 0 0-256z m0 64a64 64 0 1 1 0 128 64 64 0 0 1 0-128z"  horiz-adv-x="1024" />

    
    <glyph glyph-name="zhuchengfenfenxi" unicode="&#59312;" d="M768 416V512l192-128-192-128V352h-128V64a64 64 0 0 0-64-64H314.56a96 96 0 1 0 0 64H576V352H380.8a160 160 0 1 0 0 64H576V704H314.56a96 96 0 1 0 0 64H576a64 64 0 0 0 64-64v-288h128z m-544-128a96 96 0 1 1 0 192 96 96 0 0 1 0-192z"  horiz-adv-x="1024" />

    
    <glyph glyph-name="pmmlmoxingtiaoyong" unicode="&#59313;" d="M704 704V768H192v-640h64V640a64 64 0 0 0 64 64h384z m64 0h64a64 64 0 0 0 64-64v-640a64 64 0 0 0-64-64H320a64 64 0 0 0-64 64v64H192a64 64 0 0 0-64 64V768a64 64 0 0 0 64 64h512a64 64 0 0 0 64-64v-64zM320 640v-640h512V640H320z m96-384h192a32 32 0 1 0 0-64h-192a32 32 0 1 0 0 64z m0-128h320a32 32 0 1 0 0-64h-320a32 32 0 1 0 0 64z"  horiz-adv-x="1024" />

    
    <glyph glyph-name="xuanziduan" unicode="&#59314;" d="M809.472 288l165.44-105.152-109.696-65.92 98.88-164.608-109.696-65.92-98.88 164.608-109.76-65.92L622.272 288H128a32 32 0 0 0-32 32V704a32 32 0 0 0 32 32h768a32 32 0 0 0 32-32v-384a32 32 0 0 0-32-32h-86.528z m-100.736 64H864v320h-704v-320h457.344l-4.736 61.12 96.128-61.12zM256 576h320v-128H256V576z"  horiz-adv-x="1024" />

    
    <glyph glyph-name="zidongtezhengxuanze" unicode="&#59315;" d="M544 813.504l323.968-187.008a64 64 0 0 0 32-55.424v-374.144a64 64 0 0 0-32-55.424L544-45.44a64 64 0 0 0-64 0L156.032 141.44a64 64 0 0 0-32 55.424V571.072a64 64 0 0 0 32 55.424L480 813.44a64 64 0 0 0 64 0z m-32-55.424L188.032 571.072v-374.144L512 9.92l323.968 187.008V571.072L512 758.08zM512 256a128 128 0 1 0 0 256 128 128 0 0 0 0-256z"  horiz-adv-x="1024" />

    
    <glyph glyph-name="gouxuanliandong_bai" unicode="&#59048;" d="M992.9728 396.4416a140.032 140.032 0 0 1-192.384-5.888l-244.864-246.1952a140.032 140.032 0 0 1 0-197.504l30.0544-30.208a140.0576 140.0576 0 0 1 9.9072-9.088 496.128 496.128 0 0 0-99.2-9.9584C222.2848-102.39999999999998 0 121.08799999999997 0 396.8S222.2848 896 496.4864 896c274.176 0 496.4864-223.488 496.4864-499.2v-0.3584zM721.0752 124.3904l95.5392 96.0768a25.6 25.6 0 0 0 36.3008 0l7.7824-7.808a25.6 25.6 0 0 0 0-36.096l-95.5392-96.0768a25.6 25.6 0 0 0-36.3008 0l-7.7824 7.808a25.6 25.6 0 0 0 0 36.096z m68.2496 115.8912a30.8992 30.8992 0 0 0-43.8784 0 31.3088 31.3088 0 0 0 0 44.1344l65.8176 66.176a123.648 123.648 0 0 0 175.5392 0 125.2864 125.2864 0 0 0 0-176.4864l-65.8176-66.2016a30.8992 30.8992 0 0 0-43.904 0 31.3088 31.3088 0 0 0 0 44.1344l65.8432 66.176a62.6432 62.6432 0 0 1 0 88.2688 61.824 61.824 0 0 1-87.7824 0l-65.792-66.2016z m-0.2816-176.768a30.8992 30.8992 0 0 0 43.8784 0 31.3088 31.3088 0 0 0 0-44.1344l-65.664-66.048a123.5456 123.5456 0 0 0-175.4112 0.1536 125.184 125.184 0 0 0-0.128 176.384l65.9456 66.304a30.8992 30.8992 0 0 0 43.904 0 31.3088 31.3088 0 0 0 0-44.1344l-65.9712-66.304a62.5408 62.5408 0 0 1 0.128-88.1152c24.2432-24.3968 63.488-24.4224 87.6544-0.1536l65.664 66.048z m-389.2992 229.12l-162.2272 163.1232a38.656 38.656 0 0 1-54.912 0 39.168 39.168 0 0 1 0-55.2192l189.696-190.72a38.656 38.656 0 0 1 54.8864 0l379.392 381.44a39.168 39.168 0 0 1 0 55.2192 38.656 38.656 0 0 1-54.912 0L399.744 292.60799999999995z"  horiz-adv-x="1024" />

    
    <glyph glyph-name="gouxuanliandong_lan" unicode="&#59049;" d="M992.9728 396.4416a140.032 140.032 0 0 1-192.384-5.888l-244.864-246.1952a140.032 140.032 0 0 1 0-197.504l30.0544-30.208a140.0576 140.0576 0 0 1 9.9072-9.088 496.128 496.128 0 0 0-99.2-9.9584C222.2848-102.39999999999998 0 121.08799999999997 0 396.8S222.2848 896 496.4864 896c274.176 0 496.4864-223.488 496.4864-499.2v-0.3584zM721.0752 124.3904l95.5392 96.0768a25.6 25.6 0 0 0 36.3008 0l7.7824-7.808a25.6 25.6 0 0 0 0-36.096l-95.5392-96.0768a25.6 25.6 0 0 0-36.3008 0l-7.7824 7.808a25.6 25.6 0 0 0 0 36.096z m68.2496 115.8912a30.8992 30.8992 0 0 0-43.8784 0 31.3088 31.3088 0 0 0 0 44.1344l65.8176 66.176a123.648 123.648 0 0 0 175.5392 0 125.2864 125.2864 0 0 0 0-176.4864l-65.8176-66.2016a30.8992 30.8992 0 0 0-43.904 0 31.3088 31.3088 0 0 0 0 44.1344l65.8432 66.176a62.6432 62.6432 0 0 1 0 88.2688 61.824 61.824 0 0 1-87.7824 0l-65.792-66.2016z m-0.2816-176.768a30.8992 30.8992 0 0 0 43.8784 0 31.3088 31.3088 0 0 0 0-44.1344l-65.664-66.048a123.5456 123.5456 0 0 0-175.4112 0.1536 125.184 125.184 0 0 0-0.128 176.384l65.9456 66.304a30.8992 30.8992 0 0 0 43.904 0 31.3088 31.3088 0 0 0 0-44.1344l-65.9712-66.304a62.5408 62.5408 0 0 1 0.128-88.1152c24.2432-24.3968 63.488-24.4224 87.6544-0.1536l65.664 66.048z m-389.2992 223.5392l-162.2272 164.608a38.4256 38.4256 0 0 1-54.912 0 39.808 39.808 0 0 1 0-55.7056l189.696-192.4864a38.4256 38.4256 0 0 1 54.8864 0l379.392 384.9728a39.808 39.808 0 0 1 0 55.7312 38.4256 38.4256 0 0 1-54.912 0l-351.9232-357.12z"  horiz-adv-x="1024" />

    
    <glyph glyph-name="gouxuan_lan" unicode="&#59050;" d="M512-128C229.2224-128 0 101.2224 0 384S229.2224 896 512 896s512-229.2224 512-512-229.2224-512-512-512z m-99.7632 378.2144L244.9408 417.536a40.0384 40.0384 0 0 1-56.6272-56.6272l195.6096-195.584c15.616-15.6416 40.9856-15.6416 56.6272 0L831.744 556.4928a40.0384 40.0384 0 0 1-56.6272 56.6016L412.2368 250.21439999999996z"  horiz-adv-x="1024" />

    
    <glyph glyph-name="gouxuan_bai" unicode="&#59051;" d="M512-128C229.2224-128 0 101.2224 0 384S229.2224 896 512 896s512-229.2224 512-512-229.2224-512-512-512z m0 64c247.424 0 448 200.576 448 448S759.424 832 512 832 64 631.424 64 384 264.576-64 512-64z m-99.7632 314.2144L775.1424 613.12a40.0384 40.0384 0 1 0 56.6272-56.6016L440.5504 165.2736c-15.6416-15.616-40.9856-15.616-56.6272 0l-195.6096 195.6096a40.0384 40.0384 0 0 0 56.6272 56.6272l167.296-167.296z"  horiz-adv-x="1024" />

    
    <glyph glyph-name="zijiedianyoushezhi" unicode="&#59047;" d="M512 578.46395178a194.46395178 194.46395178 0 1 0 0-388.92790356 194.46395178 194.46395178 0 0 0 0 388.92790357z"  horiz-adv-x="1024" />

    
    <glyph glyph-name="gengxinjindu" unicode="&#59303;" d="M512-96a480 480 0 1 0 0 960 480 480 0 0 0 0-960z m0 64a416 416 0 1 1 0 832 416 416 0 0 1 0-832zM386.752 388.608L228.352 546.944a32 32 0 0 0 45.248 45.312l180.992-181.056a32 32 0 0 0 0-45.248L273.6 184.96000000000004a32 32 0 1 0-45.248 45.248l158.4 158.4z m33.6 158.336a32 32 0 0 0 45.248 45.312l180.992-181.056a32 32 0 0 0 0-45.248L465.6 184.96000000000004a32 32 0 1 0-45.248 45.248l158.4 158.4-158.4 158.336z m192 0a32 32 0 0 0 45.248 45.312l180.992-181.056a32 32 0 0 0 0-45.248l-180.992-180.992a32 32 0 1 0-45.248 45.248l158.4 158.4-158.4 158.336z"  horiz-adv-x="1024" />

    
    <glyph glyph-name="ziyuanqianyi" unicode="&#59046;" d="M549.312 656h292.288a102.4 102.4 0 0 0 102.4-102.4v-467.2a102.4 102.4 0 0 0-102.4-102.4H182.4a102.4 102.4 0 0 0-102.4 102.4v595.2a102.4 102.4 0 0 0 102.4 102.4h261.056c12.8 0 24.832-6.4 32-17.088L549.248 656z m-119.552 64H182.4a38.4 38.4 0 0 1-38.4-38.4v-595.2a38.4 38.4 0 0 1 38.4-38.4h659.2a38.4 38.4 0 0 1 38.4 38.4v467.2a38.4 38.4 0 0 1-38.4 38.4H515.072l-85.312 128z m243.2-368.192l-81.28 81.28a32 32 0 0 0 45.248 45.248l135.744-135.808a32 32 0 0 0 0-45.248l-135.744-135.744a32 32 0 1 0-45.248 45.248l81.024 81.024H273.28a32 32 0 1 0 0 64h399.616z"  horiz-adv-x="1024" />

    
    <glyph glyph-name="Pythonfenxi" unicode="&#59045;" d="M256 640V768A96 96 0 0 0 352 864h320A96 96 0 0 0 768 768v-328.064a96 96 0 0 0-96-96h-320a32 32 0 0 1-32-32v-303.872a32 32 0 0 1 32-32h320a32 32 0 0 1 32 32V128H448v64h448a32 32 0 0 1 32 32v320A32 32 0 0 1 896 576h-64V640h64a96 96 0 0 0 96-96v-320A96 96 0 0 0 896 128h-128v-119.936a96 96 0 0 0-96-96h-320a96 96 0 0 0-96 96V311.936a96 96 0 0 0 96 96h320a32 32 0 0 1 32 32V768a32 32 0 0 1-32 32h-320A32 32 0 0 1 320 768v-128h256v-64H128a32 32 0 0 1-32-32v-320a32 32 0 0 1 32-32h64v-64H128a96 96 0 0 0-96 96v320A96 96 0 0 0 128 640h128z m128 108.8h64v-64H384v64z m192-665.6h64v-64H576v64z"  horiz-adv-x="1024" />

    
    <glyph glyph-name="hover" unicode="&#59301;" d="M490.666667 405.333333h-170.666667a21.333333 21.333333 0 1 1 0-42.666666h170.666667v-170.666667a21.333333 21.333333 0 1 1 42.666666 0v170.666667h170.666667a21.333333 21.333333 0 1 1 0 42.666666h-170.666667v170.666667a21.333333 21.333333 0 1 1-42.666666 0v-170.666667zM512 810.666667c235.648 0 426.666667-191.018667 426.666667-426.666667s-191.018667-426.666667-426.666667-426.666667S85.333333 148.352 85.333333 384 276.352 810.666667 512 810.666667z"  horiz-adv-x="1024" />

    
    <glyph glyph-name="normal103" unicode="&#59302;" d="M298.666667 405.333333m21.333333 0l384 0q21.333333 0 21.333333-21.333333l0 0q0-21.333333-21.333333-21.333333l-384 0q-21.333333 0-21.333333 21.333333l0 0q0 21.333333 21.333333 21.333333ZM533.333333 597.333333m0-21.333333l0-384q0-21.333333-21.333333-21.333333l0 0q-21.333333 0-21.333333 21.333333l0 384q0 21.333333 21.333333 21.333333l0 0q21.333333 0 21.333333-21.333333Z"  horiz-adv-x="1024" />

    
    <glyph glyph-name="cebianlan-fuyong" unicode="&#59298;" d="M661.333333 618.666667h-512V341.333333a21.333333 21.333333 0 0 1 21.333334-21.333333h85.333333v-42.666667H170.666667A64 64 0 0 0 106.666667 341.333333V725.333333A64 64 0 0 0 170.666667 789.333333h469.333333A64 64 0 0 0 704 725.333333v-170.666666h-42.666667V618.666667z m0 42.666666V725.333333a21.333333 21.333333 0 0 1-21.333333 21.333334H170.666667a21.333333 21.333333 0 0 1-21.333334-21.333334v-64h512z m213.333334-298.666666V426.666667a21.333333 21.333333 0 0 1-21.333334 21.333333H384a21.333333 21.333333 0 0 1-21.333333-21.333333v-64h512z m0-42.666667h-512V42.666667a21.333333 21.333333 0 0 1 21.333333-21.333334h469.333333a21.333333 21.333333 0 0 1 21.333334 21.333334v277.333333zM384 490.666667h469.333333a64 64 0 0 0 64-64v-384a64 64 0 0 0-64-64H384A64 64 0 0 0 320 42.666667v384A64 64 0 0 0 384 490.666667z"  horiz-adv-x="1024" />

    
    <glyph glyph-name="cebianlan-qita" unicode="&#59299;" d="M213.333333 746.666667h597.333334A106.666667 106.666667 0 0 0 917.333333 640v-512a106.666667 106.666667 0 0 0-106.666666-106.666667H213.333333A106.666667 106.666667 0 0 0 106.666667 128V640A106.666667 106.666667 0 0 0 213.333333 746.666667z m0-42.666667A64 64 0 0 1 149.333333 640v-512A64 64 0 0 1 213.333333 64h597.333334a64 64 0 0 1 64 64V640A64 64 0 0 1 810.666667 704H213.333333z m85.333334-170.666667a21.333333 21.333333 0 0 0 0 42.666667h426.666666a21.333333 21.333333 0 1 0 0-42.666667H298.666667z m0-170.666666a21.333333 21.333333 0 1 0 0 42.666666h298.666666a21.333333 21.333333 0 1 0 0-42.666666H298.666667z m0-170.666667a21.333333 21.333333 0 1 0 0 42.666667h170.666666a21.333333 21.333333 0 1 0 0-42.666667H298.666667z"  horiz-adv-x="1024" />

    
    <glyph glyph-name="cebianlan-guolvzujian" unicode="&#59300;" d="M533.333333 373.12V85.333333a21.333333 21.333333 0 1 0-42.666666 0v286.336L242.816 514.858667a21.333333 21.333333 0 1 0 21.333333 36.949333l246.613334-142.464 246.570666 142.464a21.333333 21.333333 0 0 0 21.333334-36.949333l-245.333334-141.738667z m32 431.36l284.16-164.053333a106.666667 106.666667 0 0 0 53.333334-92.373334v-328.106666a106.666667 106.666667 0 0 0-53.333334-92.373334l-284.16-164.096a106.666667 106.666667 0 0 0-106.666666 0L174.506667 127.573333a106.666667 106.666667 0 0 0-53.333334 92.373334v328.106666A106.666667 106.666667 0 0 0 174.506667 640.426667l284.16 164.096a106.666667 106.666667 0 0 0 106.666666 0z m-21.333333-36.906667a64 64 0 0 1-64 0L195.84 603.477333a64 64 0 0 1-32-55.424v-328.106666a64 64 0 0 1 32-55.466667l284.16-164.053333a64 64 0 0 1 64 0l284.16 164.096a64 64 0 0 1 32 55.424v328.106666a64 64 0 0 1-32 55.466667L544 767.573333z"  horiz-adv-x="1024" />

    
    <glyph glyph-name="yincang" unicode="&#59296;" d="M334.336 167.68C251.968 208.448 183.232 280.512 128 384c91.072 170.688 219.072 256 384 256 37.44 0 72.96-4.416 106.56-13.184l58.24 94.08a32 32 0 0 0 54.4-33.728L327.04 34.176a32 32 0 0 0-54.4 33.664l61.76 99.84z m227.968 368.256a160 160 0 0 1-163.84-264.704l35.328 57.088a96 96 0 0 0 93.184 150.528l35.328 57.088zM469.76 129.92l58.752 94.912A160 160 0 0 1 661.76 440.32l79.808 128.896C801.408 526.592 852.864 464.832 896 384c-91.072-170.688-219.072-256-384-256a452.48 452.48 0 0 0-42.24 1.92z"  horiz-adv-x="1024" />

    
    <glyph glyph-name="xianshi" unicode="&#59297;" d="M512 128c-164.928 0-292.928 85.312-384 256 91.072 170.688 219.072 256 384 256s292.928-85.312 384-256c-91.072-170.688-219.072-256-384-256z m0 96a160 160 0 1 1 0 320 160 160 0 0 1 0-320z m0 64a96 96 0 1 0 0 192 96 96 0 0 0 0-192z"  horiz-adv-x="1024" />

    
    <glyph glyph-name="yidongduanbuju" unicode="&#59295;" d="M207.36 832h609.024a64 64 0 0 0 64-64v-768a64 64 0 0 0-64-64H207.36a64 64 0 0 0-64 64V768a64 64 0 0 0 64 64z m609.024-576V768H207.36v-768h609.024v192H207.36v64h609.024z m-400.64-128h192a32 32 0 1 0 0-64h-192a32 32 0 1 0 0 64z"  horiz-adv-x="1024" />

    
    <glyph glyph-name="zujianyoushangjiao_huanyuan" unicode="&#59044;" d="M818.624 544l-137.6-137.6a32 32 0 1 1 45.248-45.248l192.384 192.32a32 32 0 0 1 0 45.248L726.272 791.04a32 32 0 1 1-45.248-45.248L818.88 608H383.232a288 288 0 1 1 0-576h319.872a32 32 0 1 1 0 64H383.232a224 224 0 0 0 0 448h435.392z"  horiz-adv-x="1024" />

    
    <glyph glyph-name="baocun" unicode="&#59043;" d="M160 800h704a64 64 0 0 0 64-64v-704a64 64 0 0 0-64-64h-704a64 64 0 0 0-64 64v704a64 64 0 0 0 64 64z m128-64h-128v-704h704v704h-128v-256a64 64 0 0 0-64-64h-320a64 64 0 0 0-64 64v256z m64 0v-256h320v256h-320z m256-32a32 32 0 0 0 32-32v-128a32 32 0 0 0-64 0v128a32 32 0 0 0 32 32z"  horiz-adv-x="1024" />

    
    <glyph glyph-name="gouxuan" unicode="&#59041;" d="M826.157176 699.904l-63.849411-63.879529A375.265882 375.265882 0 0 1 496.941176 745.411765C289.008941 745.411765 120.470588 576.873412 120.470588 368.941176S289.008941-7.529412 496.941176-7.529412 873.411765 161.008941 873.411765 368.941176c0 4.939294-0.090353 9.878588-0.301177 14.757648l80.865883 80.865882c6.415059-30.870588 9.788235-62.855529 9.788235-95.62353C963.764706 111.134118 754.748235-97.882353 496.941176-97.882353 239.134118-97.882353 30.117647 111.134118 30.117647 368.941176 30.117647 626.748235 239.134118 835.764706 496.941176 835.764706c128.481882 0 244.826353-51.892706 329.216-135.860706z m90.654118-37.496471a45.176471 45.176471 0 1 0 63.548235-64.240941L543.804235 166.008471a45.176471 45.176471 0 0 0-63.759059 0.210823l-211.305411 211.937882a45.176471 45.176471 0 1 0 64 63.789177l179.501176-180.043294L916.811294 662.407529z"  horiz-adv-x="1024" />

    
    <glyph glyph-name="jiaonangxiala_jisuanfangxiang" unicode="&#59042;" d="M288.64 107.648v51.264a32 32 0 0 0 32 32h160a32 32 0 1 0 0-64h-128V32a32 32 0 0 0-54.336-22.976L54.848 245.376a32 32 0 0 0-0.32 45.632l243.456 243.2a32 32 0 0 0 54.656-22.656v-95.936l351.744 0.32a32 32 0 0 0 32-32v-51.84l165.632 165.44L736.448 659.2v-51.968a32 32 0 0 0-32-32h-161.92a32 32 0 1 0 0 64h129.92V735.104a32 32 0 0 0 54.336 22.848l243.136-237.248a32 32 0 0 0 0.256-45.504l-243.136-242.944a32 32 0 0 0-54.592 22.656V351.872l-351.808-0.256a32 32 0 0 0-32 32v50.752L122.752 268.672l165.888-161.024z"  horiz-adv-x="1024" />

    
    <glyph glyph-name="normal101" unicode="&#59293;" d="M800 352h64a64 64 0 0 0 64-64v-256a64 64 0 0 0-64-64h-256a64 64 0 0 0-64 64v64h-256a64 64 0 0 0-64 64v256h-64a64 64 0 0 0-64 64v256a64 64 0 0 0 64 64h256a64 64 0 0 0 64-64v-64h256a64 64 0 0 0 64-64v-256z m-64 0v256h-256v-128a64 64 0 0 0-64-64h-128v-256h256v128a64 64 0 0 0 64 64h128z m-576 384v-256h256v256h-256z m448-448v-256h256v256h-256z"  horiz-adv-x="1024" />

    
    <glyph glyph-name="normal102" unicode="&#59294;" d="M480 672h256a64 64 0 0 0 64-64v-256h64a64 64 0 0 0 64-64v-256a64 64 0 0 0-64-64h-256a64 64 0 0 0-64 64v64h-256a64 64 0 0 0-64 64v256h-64a64 64 0 0 0-64 64v256a64 64 0 0 0 64 64h256a64 64 0 0 0 64-64v-64z m-256-192v128a64 64 0 0 0 64 64h128v64h-256v-256h64z m384-384v-64h256v256h-64v-128a64 64 0 0 0-64-64h-128z m-320 512v-448h448v448h-448z"  horiz-adv-x="1024" />

    
    <glyph glyph-name="huadong-hui" unicode="&#59038;" d="M818.752 352H128a32 32 0 0 0 0 64h690.752L553.344 681.344a32 32 0 1 0 45.312 45.312l320-320a32 32 0 0 0 0-45.312l-320-320a32 32 0 0 0-45.312 45.312L818.752 352z"  horiz-adv-x="1194" />

    
    <glyph glyph-name="cuowu-bai" unicode="&#59039;" d="M524.288 416.96l248.96 248.896a32 32 0 1 0 45.248-45.248l-248.96-248.96 248.96-248.832a32 32 0 1 0-45.312-45.312l-248.896 248.96-248.896-248.96a32 32 0 1 0-45.248 45.312l248.96 248.896-248.96 248.896a32 32 0 1 0 45.248 45.248l248.96-248.96z"  horiz-adv-x="1024" />

    
    <glyph glyph-name="queding-bai" unicode="&#59040;" d="M589.2053333 158.20799999999997l520.384 520.448a32 32 0 1 0 45.248-45.312l-543.04-543.04a32 32 0 0 0-45.248 0L294.9973333 361.856a32 32 0 0 0 45.312 45.248l248.896-248.96z"  horiz-adv-x="1433" />

    
    <glyph glyph-name="guanlixitong_yunduanyunwei" unicode="&#59035;" d="M832.11776 608a96 96 0 1 0 63.744-90.432l-44.544-53.632a96 96 0 1 0-176.064-23.552l-40.896 27.328a95.552 95.552 0 0 0-94.72-12.544l-43.904-49.536a96 96 0 1 0-51.648 38.208l47.808 54.016a96 96 0 1 0 177.536 23.424l41.792-27.968a95.552 95.552 0 0 0 91.52 12.288l43.52 52.288A95.552 95.552 0 0 0 832.11776 608zM416.11776 320a32 32 0 1 1 0 64 32 32 0 0 1 0-64zM576.11776 512a32 32 0 1 1 0 64 32 32 0 0 1 0-64z m192-128a32 32 0 1 1 0 64 32 32 0 0 1 0-64z m160 192a32 32 0 1 1 0 64 32 32 0 0 1 0-64zM415.79776 704a32 32 0 0 0 0.64-64 176 176 0 0 1-173.888-185.28c0.256-11.008 0.256-16-0.256-22.784a32 32 0 0 0-31.872-29.632 146.304 146.304 0 1 1 0-292.608h475.392c71.04 0 131.456 51.008 144 120a32 32 0 0 0 62.912-11.392 210.304 210.304 0 0 0-206.912-172.608H210.42176a210.304 210.304 0 0 0-32 418.176A240 240 0 0 0 415.79776 704z"  horiz-adv-x="1024" />

    
    <glyph glyph-name="normal100" unicode="&#59292;" d="M725.333333 704h85.333334a85.333333 85.333333 0 0 0 85.333333-85.333333v-512a85.333333 85.333333 0 0 0-85.333333-85.333334H213.333333a85.333333 85.333333 0 0 0-85.333333 85.333334v512a85.333333 85.333333 0 0 0 85.333333 85.333333h85.333334V725.333333a21.333333 21.333333 0 0 0 42.666666 0v-21.333333h341.333334V725.333333a21.333333 21.333333 0 1 0 42.666666 0v-21.333333z m0-42.666667V640a21.333333 21.333333 0 1 0-42.666666 0v21.333333H341.333333V640a21.333333 21.333333 0 0 0-42.666666 0v21.333333H213.333333a42.666667 42.666667 0 0 1-42.666666-42.666666v-85.333334h682.666666v85.333334a42.666667 42.666667 0 0 1-42.666666 42.666666h-85.333334zM213.333333 384v-213.333333h42.666667v213.333333H213.333333z m554.666667 0v-213.333333h42.666667v213.333333h-42.666667z m-389.290667-120.746667C399.786667 287.36 422.485333 298.666667 448 298.666667c11.52 0 22.869333-8.661333 48.426667-35.925334 34.432-36.693333 51.072-49.408 79.573333-49.408 38.485333 0 72.618667 17.066667 101.376 49.92a21.333333 21.333333 0 0 1-32.085333 28.16c-21.034667-24.064-43.776-35.413333-69.290667-35.413333-11.52 0-22.869333 8.661333-48.426667 35.925333C493.141333 328.618667 476.501333 341.333333 448 341.333333c-38.485333 0-72.618667-17.066667-101.376-49.92a21.333333 21.333333 0 0 1 32.085333-28.16z"  horiz-adv-x="1024" />

    
    <glyph glyph-name="yansexian" unicode="&#59034;" d="M191.872 76.79999999999995m38.4 0l563.2 0q38.4 0 38.4-38.4l0 0q0-38.4-38.4-38.4l-563.2 0q-38.4 0-38.4 38.4l0 0q0 38.4 38.4 38.4Z"  horiz-adv-x="1024" />

    
    <glyph glyph-name="wenziyanse" unicode="&#59032;" d="M365.12 371.20000000000005l-68.672-230.4h-67.2l160.384 536.64a128 128 0 0 0 244.736 0l160.384-536.64h-67.2l-68.672 230.4h-293.76z m19.072 64h255.616l-66.56 223.488a64 64 0 0 1-122.432 0L384.192 435.2z"  horiz-adv-x="1024" />

    
    <glyph glyph-name="beijingyanse" unicode="&#59033;" d="M414.4 819.392L753.792 480a64 64 0 0 0 0-90.496L527.552 163.20000000000005a64 64 0 0 0-90.56 0L210.752 389.504a64 64 0 0 0 0 90.496l226.24 226.304-67.84 67.84a32 32 0 0 0 45.248 45.248z m67.84-158.4L256 434.752l226.304-226.304 226.24 226.304-226.24 226.24z m226.304-226.24l-226.24-226.304L256 434.752h452.544z m66.048-274.432a57.6 57.6 0 0 0-57.6 57.472c0 21.184 19.2 65.92 57.6 134.208 38.4-68.288 57.6-113.024 57.6-134.208a57.6 57.6 0 0 0-57.6-57.472z"  horiz-adv-x="1024" />

    
    <glyph glyph-name="wenzijiacu" unicode="&#59031;" d="M320 430.336h318.08c19.456 0 35.264 4.672 47.232 13.952A46.656 46.656 0 0 1 704 482.56V593.472c0 15.872-4.928 44.672-14.848 54.592-11.712 11.648-28.736 17.536-51.008 17.536H381.568c-14.08 0-26.88-3.648-38.208-10.88-15.616-10.112-23.36-38.528-23.36-53.12v-171.264z m405.824-35.584l1.088-1.024c25.984-24.32 41.024-54.4 41.024-88.448v-133.312c0-33.728-12.672-64.32-37.248-88.384-28.16-27.008-65.728-39.68-109.056-39.68H382.08C302.464 43.903999999999996 256 99.84000000000003 256 182.65599999999995V601.6c0 38.144 17.536 84.032 53.12 107.2A133.76 133.76 0 0 0 381.568 729.6H638.08c38.08 0 71.424-11.52 96.192-36.288 24.064-24 33.664-64.384 33.664-99.84V482.56a110.72 110.72 0 0 0-42.112-87.808zM320 366.336v-183.68c0-49.92 20.736-74.752 62.08-74.752h239.552c27.904 0 49.536 7.296 64.768 21.888 11.712 11.52 17.536 25.6 17.536 42.24V305.28c0 14.912-6.912 28.8-20.736 41.728-13.44 12.8-31.104 19.328-53.12 19.328H320z"  horiz-adv-x="1024" />

    
    <glyph glyph-name="wenzixiahuaxian1" unicode="&#59036;" d="M768 704v-416a128 128 0 0 0-128-128H384a128 128 0 0 0-128 128V704a32 32 0 0 0 64 0v-416a64 64 0 0 1 64-64h256a64 64 0 0 1 64 64V704a32 32 0 1 0 64 0z m-544-633.6h576a32 32 0 1 0 0-64h-576a32 32 0 1 0 0 64z"  horiz-adv-x="1024" />

    
    <glyph glyph-name="wenziqingxie1" unicode="&#59037;" d="M623.68 659.2l-163.968-548.8H620.8a32 32 0 1 0 0-64h-384a32 32 0 0 0 0 64h156.16L556.928 659.2H399.04a32 32 0 1 0 0 64h384a32 32 0 1 0 0-64h-159.36z"  horiz-adv-x="1024" />

    
    <glyph glyph-name="zhongdie-guanbi" unicode="&#59276;" d="M736 608H832A96 96 0 0 0 928 512v-448a96 96 0 0 0-96-96H384A96 96 0 0 0 288 64v96H192A96 96 0 0 0 96 256V704A96 96 0 0 0 192 800h448A96 96 0 0 0 736 704v-96z m-64 0V704a32 32 0 0 1-32 32H192a32 32 0 0 1-32-32v-448a32 32 0 0 1 32-32h96V512A96 96 0 0 0 384 608h288zM384 544a32 32 0 0 1-32-32v-448a32 32 0 0 1 32-32h448a32 32 0 0 1 32 32V512a32 32 0 0 1-32 32H384z"  horiz-adv-x="1024" />

    
    <glyph glyph-name="normalx" unicode="&#59030;" d="M415.04 20.352a192 192 0 1 0-266.624 266.624 416 416 0 1 0 266.624-266.624z m-52.992 35.968l27.008 39.808 45.824-14.912A352 352 0 1 1 209.28 306.816l14.848-45.76-39.808-27.008a128 128 0 1 1 177.728-177.728zM544 128c-46.4 0-90.24 10.944-128.96 30.4A289.28 289.28 0 0 0 295.68 269.952 288 288 0 1 0 544 128z m0 64a224 224 0 1 1 0 448 224 224 0 0 1 0-448z m0 96a128 128 0 1 0 0 256 128 128 0 0 0 0-256zM256 64a64 64 0 1 0 0 128 64 64 0 0 0 0-128z"  horiz-adv-x="1024" />

    
    <glyph glyph-name="qiehuanlujingtianjiaziduan" unicode="&#59275;" d="M224 530.752L86.656 393.344a32 32 0 1 0-45.312 45.312l192 192A32 32 0 0 0 288 608v-512a96 96 0 0 1 192 0v576a160 160 0 0 0 320 0v-434.752l137.344 137.408a32 32 0 0 0 45.312-45.312l-192-192a32 32 0 0 0-54.656 22.656v512a96 96 0 0 1-192 0v-576a160 160 0 1 0-320 0V530.752z"  horiz-adv-x="1024" />

    
    <glyph glyph-name="zhibiaobinglie-hengzhou1" unicode="&#59012;" d="M550.4 70.39999999999998H896a38.4 38.4 0 0 0 0-76.8H128a38.4 38.4 0 0 0 0 76.8h345.6V768a38.4 38.4 0 1 0 76.8 0v-697.6z m93.568 413.632a32.192 32.192 0 0 0-0.192 47.168l171.52 168a41.408 41.408 0 0 0 54.208 2.048c15.616-12.928 16.64-34.88 2.24-48.96l-147.328-144.32 167.616-161.28a32.192 32.192 0 0 0 0.32-47.04l-168.832-166.784a41.408 41.408 0 0 0-54.208-2.176 32.32 32.32 0 0 0-2.496 48.896l144.896 143.104-167.68 161.344z m-344.32-161.28l-167.68 161.28A32.192 32.192 0 0 0 131.84 531.2l171.52 168a41.408 41.408 0 0 0 54.208 2.048c15.616-12.928 16.64-34.88 2.24-48.96L212.416 507.968l167.616-161.28a32.192 32.192 0 0 0 0.32-47.04l-168.832-166.784a41.408 41.408 0 0 0-54.208-2.176 32.32 32.32 0 0 0-2.496 48.896l144.896 143.104z"  horiz-adv-x="1024" />

    
    <glyph glyph-name="zhibiaojuhe-zongzhou1" unicode="&#59027;" d="M172.8 96h691.2V761.6a38.4 38.4 0 0 0 76.8 0v-666.112a38.4 38.4 0 0 0 0-75.776v-26.112a38.4 38.4 0 1 0-76.8 0v25.6H172.8v-25.6a38.4 38.4 0 0 0-76.8 0v26.112a38.4 38.4 0 0 0 0 75.776V761.6a38.4 38.4 0 1 0 76.8 0v-665.6z m88.064 70.912a38.4 38.4 0 0 0-50.816 57.6l194.816 171.776a38.4 38.4 0 0 0 41.856 5.888l159.744-75.648 171.072 135.104a38.4 38.4 0 0 0 47.616-60.288L635.328 251.51999999999998a38.4 38.4 0 0 0-40.256-4.544L436.672 321.91999999999996l-175.808-155.072z m0 235.776a38.4 38.4 0 1 0-50.816 57.6l194.816 171.776a38.4 38.4 0 0 0 41.856 5.888l159.744-75.648 171.072 135.104a38.4 38.4 0 0 0 47.616-60.288L635.328 487.232a38.4 38.4 0 0 0-40.256-4.544L436.672 557.76 260.864 402.688z"  horiz-adv-x="1024" />

    
    <glyph glyph-name="zhibiaojuhe-hengzhou1" unicode="&#59028;" d="M154.112 774.4a38.4 38.4 0 0 0 75.776 0H896a38.4 38.4 0 0 0 0-76.8H230.4v-627.2H896a38.4 38.4 0 0 0 0-76.8H229.888a38.4 38.4 0 0 0-75.776 0H128a38.4 38.4 0 0 0 0 76.8h25.6V697.6H128a38.4 38.4 0 1 0 0 76.8h26.112zM586.368 445.632A32.192 32.192 0 0 0 586.24 492.8l171.52 168a41.408 41.408 0 0 0 54.208 2.048c15.616-12.928 16.64-34.88 2.24-48.96l-147.328-144.32 167.616-161.28a32.192 32.192 0 0 0 0.32-47.04l-168.832-166.784a41.408 41.408 0 0 0-54.208-2.176 32.32 32.32 0 0 0-2.496 48.896l144.896 143.104-167.68 161.344zM466.112 284.288l-167.68 161.344a32.192 32.192 0 0 0-0.256 47.168l171.52 168a41.408 41.408 0 0 0 54.208 2.048c15.616-12.928 16.64-34.88 2.24-48.96L378.816 469.568l167.616-161.28a32.192 32.192 0 0 0 0.32-47.04l-168.832-166.784a41.408 41.408 0 0 0-54.208-2.176 32.32 32.32 0 0 0-2.496 48.896l144.896 143.104z"  horiz-adv-x="1024" />

    
    <glyph glyph-name="zhibiaobinglie-zongzhou1" unicode="&#59029;" d="M230.4 422.4H896a38.4 38.4 0 0 0 0-76.8H230.4V0a38.4 38.4 0 0 0-76.8 0V345.6H128a38.4 38.4 0 1 0 0 76.8h25.6V768a38.4 38.4 0 1 0 76.8 0v-345.6z m114.816-419.328a38.4 38.4 0 1 0-50.432 57.856l187.264 163.2a38.4 38.4 0 0 0 41.472 5.824l152.96-71.616 163.84 127.936a38.4 38.4 0 1 0 47.36-60.544l-182.528-142.4a38.4 38.4 0 0 0-39.936-4.48L513.664 149.76l-168.448-146.752zM513.664 629.76L345.216 483.072a38.4 38.4 0 0 0-50.432 57.856l187.264 163.2a38.4 38.4 0 0 0 41.472 5.824l152.96-71.616 163.84 127.936a38.4 38.4 0 1 0 47.36-60.544l-182.528-142.4a38.4 38.4 0 0 0-39.936-4.48L513.664 629.76z"  horiz-adv-x="1024" />

    
    <glyph glyph-name="normal107" unicode="&#59291;" d="M321.28 528.768l45.248-45.248-126.72-126.72a160 160 0 0 1 226.304-226.24l126.72 126.72 45.184-45.312-126.72-126.72a224 224 0 0 0-316.736 316.8l126.72 126.72z m45.248 45.248L511.36 718.848a224 224 0 1 0 316.8-316.8L683.328 257.28l-45.312 45.248 144.896 144.896a160 160 0 1 1-226.304 226.24L411.776 528.768l-45.248 45.248z m353.088-442.432l45.248 45.312 90.56-90.56-45.312-45.248-90.496 90.496zM924.928 192h-128v64h128v-64z m-220.416-221.376h-64v128h64v-128z m-444.352 620.8L169.664 682.048l45.248 45.248L305.408 636.8l-45.248-45.248zM384.64 668.8h-64v128h64v-128zM99.2 576.3199999999999h128v-64h-128v64z"  horiz-adv-x="1024" />

    
    <glyph glyph-name="guanbi" unicode="&#59290;" d="M512.384 429.76l271.488 271.552a32 32 0 0 0 45.248-45.248L557.632 384.512l271.488-271.488a32 32 0 0 0-45.248-45.248L512.384 339.20000000000005 240.832 67.84000000000003a32 32 0 0 0-45.248 45.248l271.552 271.488-271.552 271.552a32 32 0 1 0 45.248 45.248l271.552-271.552z"  horiz-adv-x="1024" />

    
    <glyph glyph-name="chexiao" unicode="&#59289;" d="M204.736 544.192l137.6-137.6a32 32 0 1 0-45.248-45.248L104.704 553.664a32 32 0 0 0 0 45.248l192.384 192.384a32 32 0 1 0 45.248-45.312L204.48 608.192h435.648a288 288 0 1 0 0-576H320.256a32 32 0 0 0 0 64h319.872a224 224 0 1 1 0 448H204.736z"  horiz-adv-x="1024" />

    
    <glyph glyph-name="xiala1" unicode="&#59288;" d="M160 800h704a64 64 0 0 0 64-64v-704a64 64 0 0 0-64-64h-704a64 64 0 0 0-64 64v704a64 64 0 0 0 64 64z m0-64v-704h704v704h-704z m511.68-243.712a32 32 0 1 0 45.248-45.248L534.656 264.76800000000003a32 32 0 0 0-45.312 0L307.072 447.04a32 32 0 0 0 45.248 45.248L512 332.60799999999995l159.68 159.68z"  horiz-adv-x="1024" />

    
    <glyph glyph-name="shanchu" unicode="&#59026;" d="M512 414.144L421.504 504.704a21.312 21.312 0 1 1-30.208-30.208L481.92 384 391.296 293.504a21.312 21.312 0 1 1 30.208-30.208L512 353.92l90.496-90.56a21.312 21.312 0 0 1 30.208 30.208L542.08 384l90.56 90.496a21.312 21.312 0 0 1-30.208 30.208L512 414.08zM512 128a256 256 0 1 0 0 512 256 256 0 0 0 0-512z"  horiz-adv-x="1024" />

    
    <glyph glyph-name="ditupeizhi_biaojidian" unicode="&#59020;" d="M805.312 306.688l-261.44-388.096a38.4 38.4 0 0 0-63.68 0L218.496 306.688l-0.192-0.128a359.552 359.552 0 0 0-11.648 17.728l-10.944 16.192a38.272 38.272 0 0 0-5.888 14.4 358.4 358.4 0 1 0 635.968-16.192 38.528 38.528 0 0 0-3.968-7.552l-2.816-4.224a359.424 359.424 0 0 0-13.376-20.48l-0.32 0.256z m-51.2 61.44a281.6 281.6 0 1 1-482.88-2.368L512 8.832l242.176 359.424zM512 345.6a166.4 166.4 0 1 0 0 332.8 166.4 166.4 0 0 0 0-332.8z m0 76.8a89.6 89.6 0 1 1 0 179.2 89.6 89.6 0 0 1 0-179.2z"  horiz-adv-x="1024" />

    
    <glyph glyph-name="ditupeizhi_daorushuju" unicode="&#59021;" d="M927.808 384.896a32 32 0 0 0-63.616 0H864V496.32h-200.64a75.264 75.264 0 0 0-75.712 74.688V768H160v-767.36h302.72a32 32 0 1 0-5.824-63.744H171.328A75.136 75.136 0 0 0 96 11.519999999999982V757.312c0 41.152 33.664 74.56 75.392 74.688H607.36c31.36 0 69.76-16.704 91.2-39.68l193.664-207.552c20.736-22.208 35.776-60.224 35.776-90.368v-109.504h-0.192zM656.64 735.744v-171.136h160l-160 171.136zM549.376 192l83.2-83.136a32 32 0 1 0-45.312-45.248l-135.744 135.744a31.936 31.936 0 0 0-9.344 23.424 31.872 31.872 0 0 0 9.344 22.016l135.744 135.744a32 32 0 1 0 45.248-45.248L553.216 256H896a32 32 0 1 0 0-64H549.376z"  horiz-adv-x="1024" />

    
    <glyph glyph-name="ditupeizhi_duobianxing" unicode="&#59022;" d="M534.592 799.04l395.648-287.424a38.4 38.4 0 0 0 13.952-42.88l-151.168-465.152a38.4 38.4 0 0 0-36.48-26.56H267.456a38.4 38.4 0 0 0-36.48 26.56L79.808 468.672a38.4 38.4 0 0 0 13.952 42.944l395.648 287.424a38.4 38.4 0 0 0 45.184 0zM512 720.512L161.472 465.92l133.888-412.032h433.28l133.888 412.032L512 720.64z"  horiz-adv-x="1024" />

    
    <glyph glyph-name="ditupeizhi_fangda" unicode="&#59023;" d="M512 0a38.4 38.4 0 0 1 38.4 38.4V345.6h307.2a38.4 38.4 0 0 1 0 76.8H550.4V729.6a38.4 38.4 0 0 1-76.8 0v-307.2H166.4a38.4 38.4 0 0 1 0-76.8h307.2v-307.2a38.4 38.4 0 0 1 38.4-38.4"  horiz-adv-x="1024" />

    
    <glyph glyph-name="ditupeizhi_juxing" unicode="&#59024;" d="M192 768h640a64 64 0 0 0 64-64v-640a64 64 0 0 0-64-64H192a64 64 0 0 0-64 64V704a64 64 0 0 0 64 64z m12.8-76.8v-614.4h614.4V691.2H204.8z"  horiz-adv-x="1024" />

    
    <glyph glyph-name="ditupeizhi_suoxiao" unicode="&#59025;" d="M166.4 371.2a38.4 38.4 0 1 0 0 76.8h690.688a38.4 38.4 0 1 0 0-76.8H166.4z"  horiz-adv-x="1024" />

    
    <glyph glyph-name="normal110" unicode="&#59287;" d="M704 576h192a64 64 0 0 0 64-64v-512a64 64 0 0 0-64-64H128a64 64 0 0 0-64 64V512a64 64 0 0 0 64 64h192V768a64 64 0 0 0 64 64h256a64 64 0 0 0 64-64v-192z m192-256H128V384h768V512h-192a64 64 0 0 0-64 64V768H384v-192a64 64 0 0 0-64-64H128v-512h128v160a32 32 0 1 0 64 0V0h160v193.536a32 32 0 0 0 64 0V0H704v160a32 32 0 1 0 64 0V0h128V320z"  horiz-adv-x="1024" />

    
    <glyph glyph-name="normal109" unicode="&#58881;" d="M428.672 0a38.4 38.4 0 0 0 0-76.8H128a64 64 0 0 0-64 64V768a64 64 0 0 0 64 64h716.8a64 64 0 0 0 64-64v-242.112a38.4 38.4 0 0 0-76.8 0V755.2H140.8V0h287.872zM262.4 339.20000000000005a38.4 38.4 0 1 0 0 76.8h310.4a38.4 38.4 0 1 0 0-76.8H262.4z m0-192a38.4 38.4 0 0 0 0 76.8h193.792a38.4 38.4 0 0 0 0-76.8H262.4z m435.84 35.2a165.12 165.12 0 1 0 51.84-51.84l-67.712-67.712 55.168-55.232a32 32 0 0 0 0-45.248l-6.656-6.656a32 32 0 0 0-45.248 0l-55.168 55.232-81.152-81.152a32 32 0 0 0-45.248 0l-6.656 6.656a32 32 0 0 0 0 45.248l200.768 200.768zM262.4 531.2a38.4 38.4 0 1 0 0 76.8h464a38.4 38.4 0 0 0 0-76.8H262.4z m510.72-325.696a91.712 91.712 0 1 1 129.728 129.728 91.712 91.712 0 0 1-129.728-129.728z"  horiz-adv-x="1024" />

    
    <glyph glyph-name="checkbox_semiselect" unicode="&#59018;" d="M224 768A96 96 0 0 1 128 672v-576A96 96 0 0 1 224 0h576a96 96 0 0 1 96 96v576A96 96 0 0 1 800 768h-576z m0 64h576A160 160 0 0 0 960 672v-576a160 160 0 0 0-160-160h-576A160 160 0 0 0 64 96v576A160 160 0 0 0 224 832zM320 576h384v-384H320z"  horiz-adv-x="1024" />

    
    <glyph glyph-name="checkbox_select" unicode="&#59019;" d="M192 832h640a128 128 0 0 0 128-128v-640a128 128 0 0 0-128-128H192a128 128 0 0 0-128 128V704a128 128 0 0 0 128 128z m212.992-503.296l-135.68 135.744-90.56-90.496 226.24-226.24 407.296 407.296-90.496 90.496-316.8-316.8z"  horiz-adv-x="1024" />

    
    <glyph glyph-name="checkbox_hover" unicode="&#59017;" d="M192 768a64 64 0 0 1-64-64v-640a64 64 0 0 1 64-64h640a64 64 0 0 1 64 64V704a64 64 0 0 1-64 64H192z m0 64h640a128 128 0 0 0 128-128v-640a128 128 0 0 0-128-128H192a128 128 0 0 0-128 128V704a128 128 0 0 0 128 128z"  horiz-adv-x="1024" />

    
    <glyph glyph-name="gengxinshezhi" unicode="&#59016;" d="M518.016 107.96799999999996l76.672-76.672a32 32 0 0 0-45.248-45.248l-129.664 129.6a32 32 0 0 0 0 45.248L549.44 290.55999999999995a32 32 0 0 0 45.248-45.248l-73.344-73.28h230.656a176 176 0 0 1 4.096 352v0.064h-0.64a256.128 256.128 0 0 1-489.152-0.448 38096.64 38096.64 0 0 0-2.176 0.192 176 176 0 0 1 7.872-351.808 32 32 0 1 0 0-64A240 240 0 0 0 220.416 582.4a320.192 320.192 0 0 0 580.8 0.512 240.064 240.064 0 0 0-49.216-474.944H518.016z"  horiz-adv-x="1024" />

    
    <glyph glyph-name="normal108" unicode="&#59286;" d="M256 320a64 64 0 1 0 0 128 64 64 0 0 0 0-128z m256 0a64 64 0 1 0 0 128 64 64 0 0 0 0-128z m256 0a64 64 0 1 0 0 128 64 64 0 0 0 0-128z"  horiz-adv-x="1024" />

    
    <glyph glyph-name="mobanguanli" unicode="&#59284;" d="M160 832h704a64 64 0 0 0 64-64v-192a64 64 0 0 0-64-64h-704a64 64 0 0 0-64 64V768a64 64 0 0 0 64 64z m0-64v-192h704V768h-704z m0-320h256a64 64 0 0 0 64-64v-384a64 64 0 0 0-64-64h-256a64 64 0 0 0-64 64V384a64 64 0 0 0 64 64z m0-64v-384h256V384h-256zM576 415.36h320a32 32 0 1 0 0-64H576a32 32 0 1 0 0 64z m0-192h320a32 32 0 1 0 0-64H576a32 32 0 1 0 0 64z m0-192h320a32 32 0 1 0 0-64H576a32 32 0 1 0 0 64z"  horiz-adv-x="1024" />

    
    <glyph glyph-name="ditupeizhi" unicode="&#59285;" d="M128 800h767.936a64 64 0 0 0 64-64v-704a64 64 0 0 0-64-64H128a64 64 0 0 0-64 64v704a64 64 0 0 0 64 64z m768-768V417.216l-546.944-177.728L420.48 32H896z m-607.808 187.712L128 167.67999999999995v-135.68h224.768l-64.64 187.712zM541.76 736l113.536-329.728L896 484.48V736H541.76z m-67.712 0H128v-501.056l466.432 151.552L474.112 736z"  horiz-adv-x="1024" />

    
    <glyph glyph-name="wodefenxibiao1" unicode="&#59283;" d="M448-32H128c-35.328 0-64 26.624-64 59.456V740.48c0 32.832 28.672 59.456 64 59.456h320l128-118.848h320c35.328 0 64-26.624 64-59.456v-132.352a257.152 257.152 0 0 1-64 52.416v80H549.504l-128 118.784H128V512h470.656a257.152 257.152 0 0 1-52.416-64H128v-420.544h320v-59.456zM224 384H448a32 32 0 0 0 0-64H224a32 32 0 0 0 0 64z m0-128H320a32 32 0 1 0 0-64H224a32 32 0 1 0 0 64z m440-57.6a160 160 0 1 0 208 0A224 224 0 0 0 992 0a32 32 0 1 0-64 0 160 160 0 1 1-320 0 32 32 0 1 0-64 0 224 224 0 0 0 120 198.4zM768 224a96 96 0 1 1 0 192 96 96 0 0 1 0-192z"  horiz-adv-x="1024" />

    
    <glyph glyph-name="anquanguanli" unicode="&#59015;" d="M928 677.504L512 832 96 677.504v-296.576c0-92.864 37.248-182.4 104.32-250.752C327.424 0.6399999999999864 431.36-64 512-64c80.768 0 184.64 64.64 311.68 194.176 67.072 68.416 104.32 157.888 104.32 250.752V677.504z m-66.048-41.92v-254.592a298.24 298.24 0 0 0-86.976-209.024C659.52 54.27200000000005 568.768-2.1760000000000446 512-2.1760000000000446c-56.832 0-147.52 56.448-263.04 174.144a298.24 298.24 0 0 0-86.912 208.96V635.52L512 765.44l349.952-129.92zM478.976 430.336h-165.12c-18.176 0-32.96-13.824-32.96-30.912 0-17.024 14.72-30.848 33.024-30.848h165.12v-216.32c0-17.024 14.72-30.848 32.96-30.848 18.24 0 33.024 13.824 33.024 30.848V368.64h165.12c18.176 0 32.96 13.824 32.96 30.848 0 17.088-14.72 30.912-33.024 30.912h-165.12V584.832c0 17.088-14.72 30.912-32.96 30.912-18.24 0-33.024-13.824-33.024-30.912v-154.496z"  horiz-adv-x="1024" />

    
    <glyph glyph-name="jinzhi" unicode="&#59013;" d="M300.992 575.232a284.8 284.8 0 0 1 346.944-441.6l-346.944 441.6z m53.376 46.016l350.848-446.528a284.8 284.8 0 0 1-350.848 446.528zM512 28.799999999999955a355.2 355.2 0 1 0 0 710.4 355.2 355.2 0 0 0 0-710.4z"  horiz-adv-x="1024" />

    
    <glyph glyph-name="yunxu" unicode="&#59014;" d="M512 28.799999999999955a355.2 355.2 0 1 0 0 710.4 355.2 355.2 0 0 0 0-710.4z m0 70.4a284.8 284.8 0 1 1 0 569.6 284.8 284.8 0 0 1 0-569.6z m160 428.8l32-32-256-256-128 160 32 32 96-64 224 160z"  horiz-adv-x="1024" />

    
    <glyph glyph-name="fuzhidejilushu" unicode="&#59007;" d="M521.92 90.88l5.056 24.832 11.52 57.024 11.648 57.088 5.12 24.768H421.888l-33.28-163.712H330.88l32.896 163.712H268.8l11.392 58.56h96.256l29.696 147.84H305.792l11.776 58.112H417.92l32.896 158.016h57.664L476.8 519.04h132.48l32.832 158.08h58.112l-32.512-158.08h101.184l-11.392-58.048h-101.952l-30.464-147.84h106.048l-11.392-58.56H613.312l-33.28-163.712h-58.112zM433.28 311.87199999999996h134.08l30.464 149.952H463.808L433.28 311.87199999999996zM44.8 474.88v64h192v-64h-192z m0-128v64h192v-64h-192z m934.272 264.32c3.456-5.12 4.16-10.752 2.24-16.96-1.92-6.144-5.184-10.112-9.856-11.776l-50.56-13.44 33.216-42.944a14.528 14.528 0 0 0 1.92-8 34.88 34.88 0 0 0-6.08-19.2 17.28 17.28 0 0 0-7.296-6.08 24.064 24.064 0 0 0-18.24 3.2 25.6 25.6 0 0 0-10.624 11.52v-0.64l-25.6 42.88-34.56-49.216c-0.832-2.176-2.752-3.776-5.76-4.864a24 24 0 0 0-7.04-1.6 41.536 41.536 0 0 0-10.496 1.28 11.328 11.328 0 0 0-7.36 6.4v-0.64a27.328 27.328 0 0 0 0 30.08l29.44 37.12h-0.64c-0.448 0-0.896 0.256-1.344 0.704h-2.56a172.544 172.544 0 0 0-16.64 4.416 1833.92 1833.92 0 0 1-21.12 6.464c-4.672 1.664-7.808 6.336-9.216 14.016a29.44 29.44 0 0 0 1.536 19.2 16.256 16.256 0 0 0 12.16 6.4 22.784 22.784 0 0 0 14.72-3.84h-0.64l19.84-7.04c6.848-2.944 13.44-5.12 19.84-6.4v10.88a15.872 15.872 0 0 1-0.256 2.88 12.032 12.032 0 0 0-0.32 2.88v28.8c0 6.016 1.92 10.688 6.016 14.08a22.528 22.528 0 0 0 15.104 5.12 23.04 23.04 0 0 0 13.44-5.12 16.384 16.384 0 0 0 6.976-14.08l-3.2-45.44 39.68 15.424a32.896 32.896 0 0 0 17.664 1.856 21.44 21.44 0 0 0 15.616-8.32z"  horiz-adv-x="1024" />

    
    <glyph glyph-name="jisuanzhibiaofuzhi" unicode="&#59008;" d="M677.568 701.184c-64.448 0-134.4 33.28-171.904-104.128l-17.408-86.4h88.64a29.44 29.44 0 1 0 0-58.88H475.648l-79.616-391.232s-7.68-62.848-46.272-60.48c-44.224 2.752-24.064 65.728-24.064 65.728l79.04 385.92H284.864A29.12 29.12 0 0 0 256 478.72c1.216 27.52 13.568 32 28.928 32h132.544l18.496 88.128c13.056 62.336 40.128 114.56 87.168 145.152 46.976 30.464 124.416 24.896 161.408 20.608h-0.064c15.616-1.664 49.856-4.8 46.272-39.04-2.752-27.2-42.56-24.384-53.184-24.384z m264.64-276.608a32 32 0 0 0 3.968-45.056l-115.328-137.472 115.328-137.408a32 32 0 0 0-49.024-41.152l-108.16 128.832-108.032-128.832a31.808 31.808 0 0 0-45.056-3.904 32 32 0 0 0-3.968 45.056l115.328 137.408L631.936 379.52a32 32 0 1 0 49.024 41.088l108.096-128.768 108.096 128.768a31.936 31.936 0 0 0 45.056 3.968zM64 384V448h192v-64H64z m0-128V320h192v-64H64z"  horiz-adv-x="1024" />

    
    <glyph glyph-name="jilushu" unicode="&#59009;" d="M495.68 677.12L464 519.04h132.48l32.832 158.08h58.112l-32.512-158.08h101.184l-11.392-58.048h-101.952l-30.464-147.84h106.048l-11.392-58.56H600.512l-33.28-163.712h-58.112l5.056 24.832 11.52 57.024 11.648 57.088 5.12 24.768H409.088l-33.28-163.712H318.08l32.896 163.712H256l11.392 58.56h96.256l29.696 147.84H292.992l11.776 58.112H405.12l32.896 158.016h57.664z m89.408-215.296H451.008L420.48 311.87199999999996h134.08l30.464 149.952z m335.808 215.296a23.04 23.04 0 0 0 13.44-5.12 16.384 16.384 0 0 0 6.912-14.08l-3.2-45.44 39.68 15.424a32.896 32.896 0 0 0 17.728 1.856 21.44 21.44 0 0 0 15.552-8.32c3.456-5.12 4.224-10.752 2.24-16.96-1.856-6.144-5.12-10.112-9.856-11.776l-50.56-13.44 33.28-42.944a14.528 14.528 0 0 0 1.92-8c0-3.2-0.512-6.528-1.664-9.856a34.88 34.88 0 0 0-4.416-9.344 17.28 17.28 0 0 0-7.296-6.08 24.064 24.064 0 0 0-18.24 3.2 25.6 25.6 0 0 0-10.688 11.52v-0.64l-25.6 42.88-34.56-49.216c-0.768-2.176-2.752-3.776-5.76-4.864a24 24 0 0 0-6.912-1.6 41.536 41.536 0 0 0-10.56 1.28 11.328 11.328 0 0 0-7.424 6.4v-0.64a27.328 27.328 0 0 0 0 30.08l29.44 37.12h-0.64c-0.384 0-0.896 0.256-1.28 0.704h-2.56a172.544 172.544 0 0 0-16.64 4.416 1833.92 1833.92 0 0 1-21.12 6.464c-4.672 1.664-7.808 6.336-9.216 14.016a29.44 29.44 0 0 0 1.536 19.2 16.256 16.256 0 0 0 12.16 6.4 22.784 22.784 0 0 0 14.72-3.84h-0.64l19.84-7.04c6.848-2.944 13.44-5.12 19.84-6.4v10.88a15.872 15.872 0 0 1-0.32 2.88 12.032 12.032 0 0 0-0.32 2.88v28.8c0 6.016 1.984 10.688 6.08 14.08a22.528 22.528 0 0 0 15.104 5.12z"  horiz-adv-x="1024" />

    
    <glyph glyph-name="juhejisuanzhibiaofuzhi" unicode="&#59010;" d="M980.224 602.24a21.44 21.44 0 0 1-15.616 8.32 32.896 32.896 0 0 1-17.664-1.92l-39.68-15.36 3.2 45.44a16.384 16.384 0 0 1-7.04 14.08 23.04 23.04 0 0 1-13.44 5.12 22.528 22.528 0 0 1-15.04-5.12 17.344 17.344 0 0 1-6.016-14.08v-28.8c0-0.96 0-1.856 0.32-2.944a15.872 15.872 0 0 0 0.32-2.88v-10.88c-6.4 1.28-13.056 3.456-19.904 6.4l-19.84 7.04h0.64a22.784 22.784 0 0 1-14.72 3.84 16.256 16.256 0 0 1-12.16-6.4 29.44 29.44 0 0 1-1.536-19.2c1.408-7.68 4.48-12.352 9.216-14.016l21.12-6.4c6.848-2.176 12.416-3.648 16.64-4.48h2.56c0.448-0.448 0.896-0.64 1.28-0.64h0.64l-29.44-37.12a27.328 27.328 0 0 1 0-30.08V492.8a11.328 11.328 0 0 1 7.424-6.4c3.2-0.896 6.656-1.28 10.56-1.28a24 24 0 0 1 6.976 1.536c3.008 1.088 4.928 2.688 5.76 4.864l34.56 49.28 25.6-42.88v0.64a25.6 25.6 0 0 1 10.624-11.52c5.312-3.52 11.328-4.48 18.24-3.2a17.28 17.28 0 0 1 7.36 6.016 34.88 34.88 0 0 1 4.416 9.344 31.872 31.872 0 0 1 1.664 9.856 14.528 14.528 0 0 1-1.984 8l-33.28 42.944 50.56 13.44c4.736 1.664 8.064 5.632 9.92 11.776a18.88 18.88 0 0 1-2.24 16.96M613.568 701.184c-64.448 0-134.4 33.28-171.904-104.128l-17.408-86.4h88.64a29.44 29.44 0 1 0 0-58.88H411.648l-79.616-391.232s-7.68-62.848-46.272-60.48c-44.224 2.752-24.064 65.728-24.064 65.728l79.04 385.92H220.864A29.12 29.12 0 0 0 192 478.72c1.216 27.52 13.568 32 28.928 32h132.544l18.496 88.128c13.056 62.336 40.128 114.56 87.168 145.152 46.976 30.464 124.416 24.896 161.408 20.608h-0.064c15.616-1.664 49.856-4.8 46.272-39.04-2.752-27.2-42.56-24.384-53.184-24.384z m264.64-276.608a32 32 0 0 0 3.968-45.056l-115.328-137.472 115.328-137.408a32 32 0 0 0-49.024-41.152l-108.16 128.832-108.032-128.832a31.808 31.808 0 0 0-45.056-3.904 32 32 0 0 0-3.968 45.056l115.328 137.408L567.936 379.52a32 32 0 1 0 49.024 41.088l108.096-128.768 108.096 128.768a31.936 31.936 0 0 0 45.056 3.968zM0 384V448h192v-64H0z m0-128V320h192v-64H0z"  horiz-adv-x="1024" />

    
    <glyph glyph-name="shijianziduanfuzhi" unicode="&#59011;" d="M640 64a320 320 0 1 0 0 640 320 320 0 0 0 0-640z m0 64a256 256 0 1 1 0 512 256 256 0 0 1 0-512z m26.688 261.12l81.6-81.6a26.688 26.688 0 0 0-37.76-37.76L621.12 359.296a26.624 26.624 0 0 0-7.808 18.88V544a26.688 26.688 0 1 0 53.376 0v-154.88zM64 448V512h192v-64H64z m0-128V384h192v-64H64z"  horiz-adv-x="1024" />

    
    <glyph glyph-name="queding-lan" unicode="&#59006;" d="M375.872 158.20799999999997l520.384 520.448a32 32 0 1 0 45.248-45.312l-543.04-543.04a32 32 0 0 0-45.248 0L81.664 361.856a32 32 0 0 0 45.312 45.248l248.896-248.96z"  horiz-adv-x="1024" />

    
    <glyph glyph-name="zhibiaoziduan_feijuhe" unicode="&#59005;" d="M581.568 701.184c-64.448 0-134.4 33.344-171.904-104.128L392.32 510.72h88.64a29.44 29.44 0 1 0 0-58.944H379.648l-79.616-391.232s-7.68-62.848-46.272-60.48c-44.16 2.752-24.064 65.728-24.064 65.728l79.04 385.984H188.864a29.12 29.12 0 0 0-28.8 26.944c1.152 27.584 13.504 32 28.864 32h132.544l18.56 88.128c12.992 62.336 40.064 114.624 87.104 145.152 46.976 30.464 124.416 24.896 161.408 20.608 15.552-1.664 49.792-4.8 46.208-38.976-2.752-27.264-42.56-24.448-53.12-24.448z m264.64-276.608a32 32 0 0 0 3.968-45.056l-115.328-137.472 115.328-137.408a32 32 0 0 0-49.024-41.152l-108.096 128.832-108.096-128.832a31.808 31.808 0 0 0-45.056-3.904 32 32 0 0 0-3.968 45.056l115.328 137.408L535.936 379.52a32 32 0 1 0 49.024 41.088l108.16-128.768 108.032 128.768a31.936 31.936 0 0 0 45.056 3.968z"  horiz-adv-x="1024" />

    
    <glyph glyph-name="jiqunpeizhi" unicode="&#59004;" d="M160 832h704a64 64 0 0 0 64-64v-128a64 64 0 0 0-64-64h-704a64 64 0 0 0-64 64V768a64 64 0 0 0 64 64z m0-320h704a64 64 0 0 0 64-64v-128a64 64 0 0 0-64-64h-704a64 64 0 0 0-64 64V448a64 64 0 0 0 64 64z m0-320h704a64 64 0 0 0 64-64v-128a64 64 0 0 0-64-64h-704a64 64 0 0 0-64 64v128a64 64 0 0 0 64 64z m0 576v-128h704V768h-704z m0-320v-128h704V448h-704z m0-320v-128h704v128h-704zM768 672.768a32 32 0 1 0 0 64 32 32 0 0 0 0-64z m0-320a32 32 0 1 0 0 64 32 32 0 0 0 0-64z m0-320a32 32 0 1 0 0 64 32 32 0 0 0 0-64z"  horiz-adv-x="1024" />

    
    <glyph glyph-name="tubiaoku-baobiaozhanshi" unicode="&#58984;" d="M256 704V768a64 64 0 0 0 64 64h576a64 64 0 0 0 64-64v-768a64 64 0 0 0-64-64H128a64 64 0 0 0-64 64V640a64 64 0 0 0 64 64h128zM128 0h768V768H320v-608a32 32 0 1 0-64 0V640H128v-640zM448 640h64a64 64 0 0 0 64-64v-64a64 64 0 0 0-64-64H448a64 64 0 0 0-64 64V576a64 64 0 0 0 64 64z m0-64v-64h64V576H448z m224 0h128a32 32 0 1 0 0-64h-128a32 32 0 1 0 0 64z m-256-192h384a32 32 0 1 0 0-64h-384a32 32 0 0 0 0 64z m0-128h384a32 32 0 1 0 0-64h-384a32 32 0 1 0 0 64z"  horiz-adv-x="1024" />

    
    <glyph glyph-name="tubiaoku-caiwushujuzonghefenxi" unicode="&#58985;" d="M192 832h704a64 64 0 0 0 64-64v-768a64 64 0 0 0-64-64H192a64 64 0 0 0-64 64V768a64 64 0 0 0 64 64z m0-64v-768h704V768H192z m96-608h512a32 32 0 1 0 0-64h-512a32 32 0 1 0 0 64z m320 224h192a32 32 0 1 0 0-64h-192a32 32 0 0 0 0 64z m0 128h192a32 32 0 1 0 0-64h-192a32 32 0 0 0 0 64z m0 128h192a32 32 0 1 0 0-64h-192a32 32 0 0 0 0 64zM349.696 538.496L270.848 617.344a32 32 0 1 0 45.248 45.312L384 594.752l67.84 67.84a32 32 0 1 0 45.312-45.248L418.304 538.496H480a32 32 0 1 0 0-64h-64v-64h64a32 32 0 1 0 0-64h-64v-96a32 32 0 1 0-64 0v96h-64a32 32 0 0 0 0 64h64v64h-64a32 32 0 0 0 0 64h61.696z"  horiz-adv-x="1024" />

    
    <glyph glyph-name="tubiaoku-duojishangbao" unicode="&#58986;" d="M160 832h704a64 64 0 0 0 64-64v-768a64 64 0 0 0-64-64h-704a64 64 0 0 0-64 64V768a64 64 0 0 0 64 64z m0-64v-768h704V768h-704z m384-229.504V288a32 32 0 0 0-64 0V538.496L398.848 457.344a32 32 0 1 0-45.248 45.312l135.744 135.68a32 32 0 0 0 45.312 0l135.68-135.68a32 32 0 1 0-45.184-45.312L544 538.496zM320 192h384a32 32 0 1 0 0-64H320a32 32 0 1 0 0 64z"  horiz-adv-x="1024" />

    
    <glyph glyph-name="tubiaoku-canshuchaxun" unicode="&#58987;" d="M685.248 154.75199999999995a288 288 0 1 0 46.528 43.968l180.288-180.224a32 32 0 0 0-45.312-45.248l-181.504 181.504zM512 160.832a224 224 0 1 1 0 448 224 224 0 0 1 0-448z m447.872 235.776a32 32 0 0 0-64-1.664A384.064 384.064 0 0 1 561.92 765.44a32 32 0 0 0 8.32 63.488 448.064 448.064 0 0 0 389.76-432.256zM441.152 827.072a32 32 0 1 0 10.112-63.168A384.128 384.128 0 0 1 128 391.616a32 32 0 0 0-64 1.216 448.128 448.128 0 0 0 377.152 434.304z m-358.272-571.456a32 32 0 0 0 61.248 18.432 384.064 384.064 0 0 1 327.68-271.36 32 32 0 0 0-6.656-63.616 448.064 448.064 0 0 0-382.272 316.544z"  horiz-adv-x="1024" />

    
    <glyph glyph-name="tubiaoku-caiwuguanli" unicode="&#58988;" d="M128 768h768a64 64 0 0 0 64-64v-640a64 64 0 0 0-64-64H128a64 64 0 0 0-64 64V704a64 64 0 0 0 64 64z m768-192V704H128v-640h768V512H128V576h768z m-320-320h256l-64-128H512l64 128zM224 384a32 32 0 1 0 0 64 32 32 0 0 0 0-64z m128 0a32 32 0 1 0 0 64 32 32 0 0 0 0-64z m128 0a32 32 0 1 0 0 64 32 32 0 0 0 0-64z"  horiz-adv-x="1194" />

    
    <glyph glyph-name="tubiaoku-qita-" unicode="&#58989;" d="M160 763.2H384a64 64 0 0 0 64-64v-224a64 64 0 0 0-64-64H160a64 64 0 0 0-64 64v224a64 64 0 0 0 64 64z m0-63.68v-224H384v224H160z m605.248 91.328l158.4-158.4a64 64 0 0 0 0-90.496l-158.4-158.4a64 64 0 0 0-90.496 0L516.352 541.952a64 64 0 0 0 0 90.496l158.4 158.4a64 64 0 0 0 90.496 0z m-45.056-45.056L561.92 587.52l158.336-158.4 158.4 158.4-158.4 158.336zM160 315.20000000000005H384a64 64 0 0 0 64-64v-224a64 64 0 0 0-64-64H160a64 64 0 0 0-64 64v224a64 64 0 0 0 64 64z m0-63.68v-224H384v224H160z m448 63.68H832a64 64 0 0 0 64-64v-224a64 64 0 0 0-64-64H608a64 64 0 0 0-64 64v224a64 64 0 0 0 64 64z m0-63.68v-224H832v224H608z"  horiz-adv-x="1024" />

    
    <glyph glyph-name="tubiaoku-qita-1" unicode="&#58990;" d="M128 672h128.128l46.208 92.544a64 64 0 0 0 57.28 35.456h304.832a64 64 0 0 0 57.216-35.392L768 672h128a64 64 0 0 0 64-64v-576a64 64 0 0 0-64-64H128a64 64 0 0 0-64 64v576a64 64 0 0 0 64 64z m0-64v-576h768v576h-167.552l-64 128H359.616l-63.872-128H128z m652.8-146.368a38.4 38.4 0 1 0 0 76.8 38.4 38.4 0 0 0 0-76.8zM512 124.28800000000001c-106.048 0-192 87.424-192 195.328 0 107.84 85.952 195.328 192 195.328s192-87.488 192-195.328c0-107.904-85.952-195.328-192-195.328z m0 78.08c63.616 0 115.2 52.48 115.2 117.248 0 64.704-51.584 117.184-115.2 117.184s-115.2-52.48-115.2-117.184c0-64.768 51.584-117.248 115.2-117.248z"  horiz-adv-x="1024" />

    
    <glyph glyph-name="tubiaoku-qita-2" unicode="&#58991;" d="M896 832a64 64 0 0 0 64-64v-768a64 64 0 0 0-64-64H128a64 64 0 0 0-64 64V768a64 64 0 0 0 64 64h768z m0-384l-361.28-355.328a32 32 0 0 0-45.504 0.064L321.408 263.168 128 92.096V0h768V448z m0 320H128v-590.464l173.696 153.6a32 32 0 0 0 44.032-1.472l166.336-168.96L896 537.856V768zM608 672a128 128 0 1 0 0-256 128 128 0 0 0 0 256z m0-64a64 64 0 1 1 0-128 64 64 0 0 1 0 128z"  horiz-adv-x="1024" />

    
    <glyph glyph-name="tubiaoku-baobiaotianbao" unicode="&#58992;" d="M896 448a32 32 0 0 0-32 32V768h-704v-768H512a32 32 0 1 0 0-64H160a64 64 0 0 0-64 64V768a64 64 0 0 0 64 64h704a64 64 0 0 0 64-64v-288a32 32 0 0 0-32-32z m-313.6-355.264l208 297.088a64 64 0 0 0 89.152 15.68l52.416-36.672a64 64 0 0 0 15.68-89.152l-208-297.088a64 64 0 0 0-32.512-24.064l-91.2-29.888a32 32 0 0 0-41.984 29.376l-3.136 95.936a64 64 0 0 0 11.52 38.784z m104.832-73.408l208 297.088-52.416 36.672-208-297.088 1.728-53.248 50.688 16.576zM288 640h448a32 32 0 1 0 0-64h-448a32 32 0 0 0 0 64z m0-192h256a32 32 0 0 0 0-64h-256a32 32 0 0 0 0 64z m0-192h128a32 32 0 1 0 0-64h-128a32 32 0 1 0 0 64z"  horiz-adv-x="1097" />

    
    <glyph glyph-name="tubiaoku-qita-3" unicode="&#58993;" d="M89.6 659.2L320 832h64c26.88-85.312 69.632-128 128-128 58.368 0 101.12 42.688 128 128h64l230.4-172.8a64 64 0 0 0 25.6-51.2v-120.448a64 64 0 0 0-92.608-57.216L832 448v-448a64 64 0 0 0-64-64H256a64 64 0 0 0-64 64V448l-35.392-17.664A64 64 0 0 0 64 487.552V608a64 64 0 0 0 25.6 51.2zM341.312 768L128 608v-120.448l128 64V0h512V551.552l128-64V608L682.688 768C643.712 682.688 586.816 640 512 640c-74.88 0-131.712 42.688-170.688 128z"  horiz-adv-x="1024" />

    
    <glyph glyph-name="tubiaoku-shichangyingxiao" unicode="&#58994;" d="M480 640H293.952C375.296 499.456 416 403.456 416 352a160 160 0 0 0-320 0c0 51.456 40.704 147.456 122.048 288H160a32 32 0 0 0 0 64h320V800a32 32 0 0 0 64 0V704h320a32 32 0 1 0 0-64h-58.048C887.296 499.456 928 403.456 928 352a160 160 0 1 0-320 0c0 51.456 40.704 147.456 122.048 288H544v-640h128a32 32 0 1 0 0-64h-320a32 32 0 1 0 0 64h128V640z m-128-288c0 33.92-32.128 111.552-96 225.28-63.872-113.728-96-191.36-96-225.28a96 96 0 0 1 192 0z m512 0c0 33.92-32.128 111.552-96 225.28-63.872-113.728-96-191.36-96-225.28a96 96 0 0 1 192 0z"  horiz-adv-x="1024" />

    
    <glyph glyph-name="tubiaoku-qita-4" unicode="&#58995;" d="M606.848 587.7760000000001A638.272 638.272 0 0 1 512.064 768a636.16 636.16 0 0 1-94.912-180.224 384.768 384.768 0 0 1 189.696 0z m17.28-61.632A448.832 448.832 0 0 0 512 512a448.832 448.832 0 0 0-112.128 14.144A640.064 640.064 0 0 1 384.768 416h254.464a640.064 640.064 0 0 1-15.104 110.144zM258.048 672c29.184-25.792 62.4-47.232 98.56-63.296 17.92 53.12 41.984 103.424 71.296 150.08A382.912 382.912 0 0 1 257.984 672z m-44.416-46.208A382.208 382.208 0 0 1 129.344 416h191.36a704 704 0 0 0 18.176 130.688 448.256 448.256 0 0 0-125.248 79.104z m552.32 46.208a382.912 382.912 0 0 1-169.856 86.784c29.312-46.656 53.376-96.896 71.296-150.08a384.32 384.32 0 0 1 98.56 63.296z m44.416-46.208a448.256 448.256 0 0 0-125.248-79.104 704 704 0 0 0 18.176-130.688h191.36a382.208 382.208 0 0 1-84.288 209.792zM384.768 352c1.92-37.696 7.04-74.496 15.104-110.144A448.832 448.832 0 0 0 512 256c38.72 0 76.288-4.928 112.128-14.144 8.128 35.648 13.248 72.448 15.104 110.144H384.768z m-64 0H129.28a382.208 382.208 0 0 1 84.288-209.792 448.256 448.256 0 0 0 125.248 79.104A704 704 0 0 0 320.704 352zM512 0a638.272 638.272 0 0 1 94.784 180.224 384.768 384.768 0 0 1-189.696 0A638.272 638.272 0 0 1 511.936 0z m-84.16 9.216a700.864 700.864 0 0 0-71.296 150.08 384.32 384.32 0 0 1-98.56-63.296 382.912 382.912 0 0 1 169.856-86.784zM703.36 352a704 704 0 0 0-18.176-130.688 448.256 448.256 0 0 0 125.248-79.104A382.208 382.208 0 0 1 894.656 352h-191.36z m-107.2-342.784a382.912 382.912 0 0 1 169.92 86.784 384.32 384.32 0 0 1-98.624 63.296c-17.92-53.12-41.984-103.424-71.296-150.08zM65.152 352H64v64h1.152a448 448 0 0 0 893.696 0H960v-64h-1.152a448 448 0 0 0-893.696 0z"  horiz-adv-x="1024" />

    
    <glyph glyph-name="tubiaoku-tongjitubiao" unicode="&#58996;" d="M373.888 721.152a32 32 0 0 0 17.664-61.504A320.128 320.128 0 0 1 480 32c141.44 0 264.96 92.608 305.92 225.792a32 32 0 0 0 61.184-18.816A384.128 384.128 0 0 0 96 352a384.128 384.128 0 0 0 277.888 369.152zM480 800H512A416 416 0 0 0 928 384v-32h-384a64 64 0 0 0-64 64v384z m64-384h318.592A352.128 352.128 0 0 1 544 734.592V416z"  horiz-adv-x="1024" />

    
    <glyph glyph-name="tubiaoku-tianbaoluru" unicode="&#58997;" d="M563.2 714.048a32 32 0 0 0-32-32H179.2v-640h640v352a32 32 0 1 0 64 0v-352a64 64 0 0 0-64-64h-640a64 64 0 0 0-64 64v640a64 64 0 0 0 64 64h352a32 32 0 0 0 32-32zM300.416 299.00800000000004l475.776 475.84a64 64 0 0 0 90.56 0l45.248-45.248a64 64 0 0 0 0-90.496L436.16 163.20000000000005a64 64 0 0 0-59.904-17.024l-75.2 17.664-17.728 75.2a64 64 0 0 0 17.088 59.904z m90.496-90.496l475.84 475.84-45.248 45.248L345.6 253.76l8.576-36.608 36.672-8.64z"  horiz-adv-x="1024" />

    
    <glyph glyph-name="tubiaoku-tubiaozhanshi" unicode="&#58998;" d="M256 320a32 32 0 0 0 32-32v-192a32 32 0 1 0-64 0v192A32 32 0 0 0 256 320z m160 128a32 32 0 0 0 32-32v-320a32 32 0 1 0-64 0v320a32 32 0 0 0 32 32zM576 320a32 32 0 0 0 32-32v-192a32 32 0 1 0-64 0v192A32 32 0 0 0 576 320z m160 128a32 32 0 0 0 32-32v-320a32 32 0 1 0-64 0v320a32 32 0 0 0 32 32zM896 576a32 32 0 0 0 32-32v-448a32 32 0 1 0-64 0v448A32 32 0 0 0 896 576zM128 800V0h800a32 32 0 1 0 0-64H128a64 64 0 0 0-64 64V800a32 32 0 0 0 64 0z m468.096-250.88L421.76 662.336 268.032 487.936a32 32 0 0 0-48 42.304l171.968 195.008a32 32 0 0 0 41.408 5.76l177.344-115.072 232.32 200.96a32 32 0 1 0 41.856-48.384L634.432 551.808a32 32 0 0 0-38.336-2.624z"  horiz-adv-x="1024" />

    
    <glyph glyph-name="tubiaoku-xiaoshouguanli" unicode="&#58999;" d="M404.608 320l27.264-79.488H896a32 32 0 1 0 0-64H408.96a32 32 0 0 0-30.208 21.632l-184.448 537.6L76.16 775.6800000000001a32 32 0 0 0 20.48 60.608l133.12-44.928a32 32 0 0 0 20.032-19.904l25.152-73.28 611.648-51.008a64 64 0 0 0 54.144-87.552L860.8 360.32000000000005a64 64 0 0 0-59.392-40.256H404.608z m-21.952 64h418.816l79.744 199.424-583.68 48.64L382.72 384zM480-64a96 96 0 1 0 0 192 96 96 0 0 0 0-192z m0 64a32 32 0 1 1 0 64 32 32 0 0 1 0-64z m320-64a96 96 0 1 0 0 192 96 96 0 0 0 0-192z m0 64a32 32 0 1 1 0 64 32 32 0 0 1 0-64z"  horiz-adv-x="1024" />

    
    <glyph glyph-name="tubiaoku-quanxianshiyong" unicode="&#59000;" d="M96 640a32 32 0 0 0 27.072 31.616C286.592 697.152 407.552 757.6320000000001 487.488 852.608a32 32 0 0 0 49.152-0.192c79.872-96.32 200.704-156.736 364.032-180.736A32 32 0 0 0 928 640v-384l-0.832-7.36c-42.176-178.432-180.16-293.44-408.256-343.872a32 32 0 0 0-14.528 0.128c-207.232 50.944-344 164.864-406.528 340.352L96 256V640z m64-378.368c55.04-149.376 171.392-246.464 352.384-292.736 199.68 45.888 315.136 142.464 351.616 290.88V612.736c-149.632 26.24-267.328 83.328-352.192 171.52C427.008 697.28 309.44 640.3199999999999 160 612.928v-351.36z m384-5.632H640a32 32 0 1 0 0-64H544v-96a32 32 0 1 0-64 0V323.20000000000005a160 160 0 1 0 64 0V256zM512 384a96 96 0 1 1 0 192 96 96 0 0 1 0-192z"  horiz-adv-x="1024" />

    
    <glyph glyph-name="tubiaoku-yunyingguanli" unicode="&#59001;" d="M817.024 238.91200000000003c9.856 31.04 14.976 63.68 14.976 97.088 0 97.28-43.584 187.264-117.44 247.68a32 32 0 1 0 40.576 49.6A383.232 383.232 0 0 0 896 336c0-41.728-6.656-82.56-19.584-121.344a128 128 0 1 0-59.456 24.192z m-474.24-174.592c50.304-31.36 108.48-48.32 169.216-48.32 28.928 0 57.344 3.84 84.736 11.328a32 32 0 0 0 16.896-61.696A384.384 384.384 0 0 0 512-48a382.336 382.336 0 0 0-207.232 60.672 128 128 0 1 0 38.08 51.648z m52.992 569.92A320.192 320.192 0 0 1 192 336a32 32 0 0 0-64 0 384.128 384.128 0 0 0 256.384 362.24 128 128 0 1 0 11.392-64zM512 624a64 64 0 1 1 0 128 64 64 0 0 1 0-128z m-288-576a64 64 0 1 1 0 128 64 64 0 0 1 0-128z m576 0a64 64 0 1 1 0 128 64 64 0 0 1 0-128z"  horiz-adv-x="1024" />

    
    </font>
</defs>
</svg>
